<svg xmlns="http://www.w3.org/2000/svg" xmlns:xlink="http://www.w3.org/1999/xlink" width="22" height="16" viewBox="0 0 22 16">
  <defs>
    <clipPath id="clip-path">
      <rect id="Rectangle_13422" data-name="Rectangle 13422" width="22" height="16" transform="translate(1804 2753)" fill="#fff" opacity="0.65"/>
    </clipPath>
    <filter id="BG" x="-694.998" y="-151" width="369" height="180" filterUnits="userSpaceOnUse">
      <feOffset input="SourceAlpha"/>
      <feGaussianBlur stdDeviation="10" result="blur"/>
      <feFlood flood-opacity="0.039"/>
      <feComposite operator="in" in2="blur"/>
      <feComposite in="SourceGraphic"/>
    </filter>
    <filter id="BG-2" x="-1027.998" y="-151" width="369" height="180" filterUnits="userSpaceOnUse">
      <feOffset input="SourceAlpha"/>
      <feGaussianBlur stdDeviation="10" result="blur-2"/>
      <feFlood flood-opacity="0.039"/>
      <feComposite operator="in" in2="blur-2"/>
      <feComposite in="SourceGraphic"/>
    </filter>
    <filter id="BG-3" x="-1360.998" y="-151" width="369" height="180" filterUnits="userSpaceOnUse">
      <feOffset input="SourceAlpha"/>
      <feGaussianBlur stdDeviation="10" result="blur-3"/>
      <feFlood flood-opacity="0.039"/>
      <feComposite operator="in" in2="blur-3"/>
      <feComposite in="SourceGraphic"/>
    </filter>
    <filter id="BG-4" x="-1693.998" y="-151" width="369" height="180" filterUnits="userSpaceOnUse">
      <feOffset input="SourceAlpha"/>
      <feGaussianBlur stdDeviation="10" result="blur-4"/>
      <feFlood flood-opacity="0.039"/>
      <feComposite operator="in" in2="blur-4"/>
      <feComposite in="SourceGraphic"/>
    </filter>
  </defs>
  <g id="arowTab" transform="translate(-1804 -2753)" clip-path="url(#clip-path)">
    <g id="Tabs" transform="translate(74 2461)">
      <path id="arowTab-2" data-name="arowTab" d="M10,0,20,15H0Z" transform="translate(1751 306) rotate(180)" fill="#fff" stroke="#bb945b" stroke-width="1"/>
      <g id="طلب_استفسار" data-name="طلب استفسار" transform="translate(1398 171)">
        <path id="BG-5" data-name="BG" d="M18473,16042h-145v-120h309v120h-144l-10,15Z" transform="translate(-18328 -15922)" fill="#fff" stroke="#bb945b" stroke-width="1"/>
        <g id="IconReq" transform="translate(34.783 -41.144)">
          <path id="Path_130187" data-name="Path 130187" d="M316.249,304.079a1.217,1.217,0,0,0-1.217,1.217v6.167a3.5,3.5,0,0,1-3.495,3.495h-4.561a2.006,2.006,0,0,0-2,2v6.381l-9.118-7.9a2,2,0,0,0-1.312-.489H281a1.217,1.217,0,1,0,0,2.434h13.386l9.709,8.408a2.022,2.022,0,0,0,3.315-1.515v-6.893h4.13a5.936,5.936,0,0,0,5.929-5.929V305.3a1.217,1.217,0,0,0-1.217-1.217Z" transform="translate(-234.376 -195.134)" fill="#bb945b"/>
          <path id="Path_130188" data-name="Path 130188" d="M77.161,85.74H53.185V77.072a5.936,5.936,0,0,0-5.929-5.929h-30.1a1.217,1.217,0,0,0,0,2.434h30.1a3.5,3.5,0,0,1,3.495,3.495v24.66a3.5,3.5,0,0,1-3.495,3.495H22.923a2,2,0,0,0-1.312.489l-9.118,7.9v-6.381a2.006,2.006,0,0,0-2-2H5.929a3.5,3.5,0,0,1-3.495-3.495V77.072a3.5,3.5,0,0,1,3.495-3.495h5.918a1.217,1.217,0,1,0,0-2.434H5.929A5.936,5.936,0,0,0,0,77.072v24.66a5.936,5.936,0,0,0,5.929,5.929h4.13v6.893a2.022,2.022,0,0,0,3.315,1.515l9.709-8.408h6.822v8.668a5.936,5.936,0,0,0,5.929,5.929h5.483a1.217,1.217,0,1,0,0-2.434H35.834a3.5,3.5,0,0,1-3.495-3.495v-8.668H47.256a5.936,5.936,0,0,0,5.929-5.929V88.174H77.161a3.5,3.5,0,0,1,3.495,3.495v13.189a1.217,1.217,0,0,0,2.434,0V91.669a5.936,5.936,0,0,0-5.929-5.929Z" fill="#bb945b"/>
          <path id="Path_130189" data-name="Path 130189" d="M356.05,209.007h15.039a1.217,1.217,0,1,0,0-2.434H356.05a1.217,1.217,0,1,0,0,2.434Z" transform="translate(-297.249 -113.452)" fill="#bb945b"/>
          <path id="Path_130190" data-name="Path 130190" d="M356.05,264.878h15.039a1.217,1.217,0,1,0,0-2.434H356.05a1.217,1.217,0,1,0,0,2.434Z" transform="translate(-297.249 -160.256)" fill="#bb945b"/>
          <path id="Path_130191" data-name="Path 130191" d="M232.833,319.533a1.217,1.217,0,0,0,1.217,1.217h34.837a1.217,1.217,0,0,0,0-2.434H234.05A1.217,1.217,0,0,0,232.833,319.533Z" transform="translate(-195.047 -207.06)" fill="#bb945b"/>
          <circle id="Ellipse_9944" data-name="Ellipse 9944" cx="1.231" cy="1.231" r="1.231" transform="translate(25.362 96.931)" fill="#bb945b"/>
          <path id="Path_130192" data-name="Path 130192" d="M139.724,119.464a5.8,5.8,0,0,0-11.587.307,1.217,1.217,0,1,0,2.434,0,3.413,3.413,0,0,1,.032-.471,3.363,3.363,0,1,1,3.331,3.834,1.217,1.217,0,0,0-1.217,1.217v4.79a1.217,1.217,0,1,0,2.434,0v-3.7a5.827,5.827,0,0,0,2.987-1.676A5.752,5.752,0,0,0,139.724,119.464Z" transform="translate(-107.342 -35.88)" fill="#bb945b"/>
        </g>
        <text id="طلب_استفسار-2" data-name="طلب استفسار" transform="translate(279 66)" fill="#0d1c2a" font-size="22" font-family="SegoeUI-Bold, Segoe UI" font-weight="700"><tspan x="-127.306" y="0">طلب استفسار</tspan></text>
      </g>
      <g id="طلب_موعد_تدريب" data-name="طلب موعد تدريب" transform="translate(1065.002 171)">
        <g transform="matrix(1, 0, 0, 1, 665, 121)" filter="url(#BG)">
          <rect id="BG-6" data-name="BG" width="309" height="120" transform="translate(-665 -121)" fill="#fff"/>
        </g>
        <g id="IconDate" transform="translate(25 30)">
          <path id="Path_61746" data-name="Path 61746" d="M56.306,15.065v-6.5a4.312,4.312,0,0,0-4.312-4.312H49.237V1.875A1.875,1.875,0,0,0,47.362,0H44.718a1.875,1.875,0,0,0-1.875,1.875V4.256H37.312V1.875A1.875,1.875,0,0,0,35.437,0H32.812a1.875,1.875,0,0,0-1.875,1.875V4.256H25.4V1.875A1.875,1.875,0,0,0,23.522,0H20.878A1.875,1.875,0,0,0,19,1.875V4.256H13.472V1.875A1.875,1.875,0,0,0,11.6,0H8.953A1.875,1.875,0,0,0,7.078,1.875V4.256H4.322A4.322,4.322,0,0,0,0,8.569V45.178A4.331,4.331,0,0,0,4.322,49.5H29A15.984,15.984,0,1,0,56.306,33.8ZM44.718,1.819l2.7.056V8.25a.066.066,0,0,1-.066.066l-2.7-.066Zm-11.906,0,2.681.056V8.25s0,.066-.056.066L32.728,8.25Zm-11.916,0,2.681.056V8.25a.066.066,0,0,1-.066.066l-2.7-.066Zm-11.925,0,2.681.056V5.156h0V8.25s0,.066-.056.066L8.887,8.25ZM1.819,8.569a2.5,2.5,0,0,1,2.5-2.494H7.078V8.25a1.875,1.875,0,0,0,1.875,1.875H11.6A1.875,1.875,0,0,0,13.472,8.25V6.075h5.522V8.25a1.875,1.875,0,0,0,1.875,1.875H23.5A1.875,1.875,0,0,0,25.378,8.25V6.075h5.559V8.25a1.875,1.875,0,0,0,1.875,1.875h2.625A1.875,1.875,0,0,0,37.312,8.25V6.075h5.522V8.25a1.875,1.875,0,0,0,1.875,1.875h2.634A1.875,1.875,0,0,0,49.218,8.25V6.075h2.756a2.494,2.494,0,0,1,2.494,2.494v5.625H1.819ZM28.444,47.681H4.322a2.512,2.512,0,0,1-2.5-2.5V15.937H54.487V31.875A15.937,15.937,0,0,0,28.444,47.681ZM58.181,44A14.184,14.184,0,1,1,44,29.822,14.184,14.184,0,0,1,58.181,44Z" fill="#bb945b"/>
          <path id="Path_61747" data-name="Path 61747" d="M26.586,19.71H20.567a.937.937,0,0,0-.937.937v5.625a.937.937,0,0,0,.937.937h6.019a.937.937,0,0,0,.937-.937V20.647A.937.937,0,0,0,26.586,19.71Zm-.937,5.625H21.477v-3.75h4.2Z" transform="translate(-1.227 -1.232)" fill="#bb945b"/>
          <path id="Path_61748" data-name="Path 61748" d="M39.884,26.222V20.6a.937.937,0,0,0-.937-.937H32.937A.937.937,0,0,0,32,20.6v5.625a.937.937,0,0,0,.937.937h6.019a.937.937,0,0,0,.928-.937Zm-1.819-.937H33.875v-3.75h4.2Z" transform="translate(-2 -1.229)" fill="#bb945b"/>
          <path id="Path_61749" data-name="Path 61749" d="M45.347,27.13h6.019a.937.937,0,0,0,.937-.937V20.567a.937.937,0,0,0-.937-.937H45.347a.937.937,0,0,0-.937.937v5.625A.937.937,0,0,0,45.347,27.13Zm.937-5.625h4.2v3.75H46.257Z" transform="translate(-2.776 -1.227)" fill="#bb945b"/>
          <path id="Path_61750" data-name="Path 61750" d="M14.2,30H8.177a.937.937,0,0,0-.937.937v5.625a.937.937,0,0,0,.937.937H14.2a.937.937,0,0,0,.937-.937V30.937A.937.937,0,0,0,14.2,30Zm-.937,5.625H9.087v-3.75h4.2Z" transform="translate(-0.453 -1.875)" fill="#bb945b"/>
          <path id="Path_61751" data-name="Path 61751" d="M26.586,30H20.567a.937.937,0,0,0-.937.937v5.625a.937.937,0,0,0,.937.937h6.019a.937.937,0,0,0,.937-.937V30.937A.937.937,0,0,0,26.586,30Zm-.937,5.625H21.477v-3.75h4.2Z" transform="translate(-1.227 -1.875)" fill="#bb945b"/>
          <path id="Path_61752" data-name="Path 61752" d="M14.2,40.27H8.177a.937.937,0,0,0-.937.937v5.625a.937.937,0,0,0,.937.937H14.2a.937.937,0,0,0,.937-.937V41.207A.937.937,0,0,0,14.2,40.27Zm-.937,5.625H9.087v-3.75h4.2Z" transform="translate(-0.453 -2.517)" fill="#bb945b"/>
          <path id="Path_61753" data-name="Path 61753" d="M26.586,40.27H20.567a.937.937,0,0,0-.937.937v5.625a.937.937,0,0,0,.937.937h6.019a.937.937,0,0,0,.937-.937V41.207A.937.937,0,0,0,26.586,40.27Zm-.937,5.625H21.477v-3.75h4.2Z" transform="translate(-1.227 -2.517)" fill="#bb945b"/>
          <path id="Path_61754" data-name="Path 61754" d="M55.783,50l-8.006-4.35V36.171a.937.937,0,1,0-1.809,0V46.184a.938.938,0,0,0,.469.806l8.437,4.6A.918.918,0,0,0,55.783,50Z" transform="translate(-2.871 -2.187)" fill="#bb945b"/>
        </g>
        <text id="طلب_موعد_لتدريب_على_الهوية_المعمارية" data-name="طلب موعد لتدريب
على الهوية المعمارية" transform="translate(284 50)" fill="#0d1c2a" font-size="22" font-family="SegoeUI-Light, Segoe UI" font-weight="300"><tspan x="-155.955" y="0">طلب موعد لتدريب</tspan><tspan y="0"></tspan><tspan x="-170.027" y="30">على الهوية المعمارية</tspan></text>
      </g>
      <g id="طلب_موعد_تعريف" data-name="طلب موعد تعريف" transform="translate(732.002 171)">
        <g transform="matrix(1, 0, 0, 1, 998, 121)" filter="url(#BG-2)">
          <rect id="BG-7" data-name="BG" width="309" height="120" transform="translate(-998 -121)" fill="#fff"/>
        </g>
        <g id="Icon" transform="translate(25 30)">
          <path id="Path_61746-2" data-name="Path 61746" d="M56.306,15.065v-6.5a4.312,4.312,0,0,0-4.312-4.312H49.237V1.875A1.875,1.875,0,0,0,47.362,0H44.718a1.875,1.875,0,0,0-1.875,1.875V4.256H37.312V1.875A1.875,1.875,0,0,0,35.437,0H32.812a1.875,1.875,0,0,0-1.875,1.875V4.256H25.4V1.875A1.875,1.875,0,0,0,23.522,0H20.878A1.875,1.875,0,0,0,19,1.875V4.256H13.472V1.875A1.875,1.875,0,0,0,11.6,0H8.953A1.875,1.875,0,0,0,7.078,1.875V4.256H4.322A4.322,4.322,0,0,0,0,8.569V45.178A4.331,4.331,0,0,0,4.322,49.5H29A15.984,15.984,0,1,0,56.306,33.8ZM44.718,1.819l2.7.056V8.25a.066.066,0,0,1-.066.066l-2.7-.066Zm-11.906,0,2.681.056V8.25s0,.066-.056.066L32.728,8.25Zm-11.916,0,2.681.056V8.25a.066.066,0,0,1-.066.066l-2.7-.066Zm-11.925,0,2.681.056V5.156h0V8.25s0,.066-.056.066L8.887,8.25ZM1.819,8.569a2.5,2.5,0,0,1,2.5-2.494H7.078V8.25a1.875,1.875,0,0,0,1.875,1.875H11.6A1.875,1.875,0,0,0,13.472,8.25V6.075h5.522V8.25a1.875,1.875,0,0,0,1.875,1.875H23.5A1.875,1.875,0,0,0,25.378,8.25V6.075h5.559V8.25a1.875,1.875,0,0,0,1.875,1.875h2.625A1.875,1.875,0,0,0,37.312,8.25V6.075h5.522V8.25a1.875,1.875,0,0,0,1.875,1.875h2.634A1.875,1.875,0,0,0,49.218,8.25V6.075h2.756a2.494,2.494,0,0,1,2.494,2.494v5.625H1.819ZM28.444,47.681H4.322a2.512,2.512,0,0,1-2.5-2.5V15.937H54.487V31.875A15.937,15.937,0,0,0,28.444,47.681ZM58.181,44A14.184,14.184,0,1,1,44,29.822,14.184,14.184,0,0,1,58.181,44Z" fill="#bb945b"/>
          <path id="Path_61747-2" data-name="Path 61747" d="M26.586,19.71H20.567a.937.937,0,0,0-.937.937v5.625a.937.937,0,0,0,.937.937h6.019a.937.937,0,0,0,.937-.937V20.647A.937.937,0,0,0,26.586,19.71Zm-.937,5.625H21.477v-3.75h4.2Z" transform="translate(-1.227 -1.232)" fill="#bb945b"/>
          <path id="Path_61748-2" data-name="Path 61748" d="M39.884,26.222V20.6a.937.937,0,0,0-.937-.937H32.937A.937.937,0,0,0,32,20.6v5.625a.937.937,0,0,0,.937.937h6.019a.937.937,0,0,0,.928-.937Zm-1.819-.937H33.875v-3.75h4.2Z" transform="translate(-2 -1.229)" fill="#bb945b"/>
          <path id="Path_61749-2" data-name="Path 61749" d="M45.347,27.13h6.019a.937.937,0,0,0,.937-.937V20.567a.937.937,0,0,0-.937-.937H45.347a.937.937,0,0,0-.937.937v5.625A.937.937,0,0,0,45.347,27.13Zm.937-5.625h4.2v3.75H46.257Z" transform="translate(-2.776 -1.227)" fill="#bb945b"/>
          <path id="Path_61750-2" data-name="Path 61750" d="M14.2,30H8.177a.937.937,0,0,0-.937.937v5.625a.937.937,0,0,0,.937.937H14.2a.937.937,0,0,0,.937-.937V30.937A.937.937,0,0,0,14.2,30Zm-.937,5.625H9.087v-3.75h4.2Z" transform="translate(-0.453 -1.875)" fill="#bb945b"/>
          <path id="Path_61751-2" data-name="Path 61751" d="M26.586,30H20.567a.937.937,0,0,0-.937.937v5.625a.937.937,0,0,0,.937.937h6.019a.937.937,0,0,0,.937-.937V30.937A.937.937,0,0,0,26.586,30Zm-.937,5.625H21.477v-3.75h4.2Z" transform="translate(-1.227 -1.875)" fill="#bb945b"/>
          <path id="Path_61752-2" data-name="Path 61752" d="M14.2,40.27H8.177a.937.937,0,0,0-.937.937v5.625a.937.937,0,0,0,.937.937H14.2a.937.937,0,0,0,.937-.937V41.207A.937.937,0,0,0,14.2,40.27Zm-.937,5.625H9.087v-3.75h4.2Z" transform="translate(-0.453 -2.517)" fill="#bb945b"/>
          <path id="Path_61753-2" data-name="Path 61753" d="M26.586,40.27H20.567a.937.937,0,0,0-.937.937v5.625a.937.937,0,0,0,.937.937h6.019a.937.937,0,0,0,.937-.937V41.207A.937.937,0,0,0,26.586,40.27Zm-.937,5.625H21.477v-3.75h4.2Z" transform="translate(-1.227 -2.517)" fill="#bb945b"/>
          <path id="Path_61754-2" data-name="Path 61754" d="M55.783,50l-8.006-4.35V36.171a.937.937,0,1,0-1.809,0V46.184a.938.938,0,0,0,.469.806l8.437,4.6A.918.918,0,0,0,55.783,50Z" transform="translate(-2.871 -2.187)" fill="#bb945b"/>
        </g>
        <text id="طلب_موعد_لتعريف_عن_الهوية_المعمارية" data-name="طلب موعد لتعريف
عن الهوية المعمارية" transform="translate(284 50)" fill="#0d1c2a" font-size="22" font-family="SegoeUI-Light, Segoe UI" font-weight="300"><tspan x="-158.437" y="0">طلب موعد لتعريف</tspan><tspan y="0"></tspan><tspan x="-159.693" y="30">عن الهوية المعمارية</tspan></text>
      </g>
      <g id="طلب_اعتماد" data-name="طلب اعتماد" transform="translate(399.002 171)">
        <g transform="matrix(1, 0, 0, 1, 1331, 121)" filter="url(#BG-3)">
          <rect id="BG-8" data-name="BG" width="309" height="120" transform="translate(-1331 -121)" fill="#fff"/>
        </g>
        <g id="IconDes" transform="translate(24.998 29.18)">
          <g id="Group_126219" data-name="Group 126219" transform="translate(42.243 42.994)">
            <g id="Group_126218" data-name="Group 126218">
              <path id="Path_130193" data-name="Path 130193" d="M371.358,360.816a.881.881,0,0,0-.96.191l-9.623,9.623a.881.881,0,0,0,.623,1.5h9.623a.88.88,0,0,0,.881-.881V361.63A.881.881,0,0,0,371.358,360.816Zm-7.834,9.556,6.617-6.617v6.617Z" transform="translate(-360.517 -360.749)" fill="#bb945b"/>
            </g>
          </g>
          <g id="Group_126221" data-name="Group 126221" transform="translate(0 0.82)">
            <g id="Group_126220" data-name="Group 126220">
              <path id="Path_130194" data-name="Path 130194" d="M59.449,28.947a.88.88,0,0,0-.96.191l-2.637,2.637V13.844a.881.881,0,0,0-.881-.881H48.206l2.456-2.456h0L53.029,8.14a2.685,2.685,0,0,0,0-3.8L50.293,1.606a2.685,2.685,0,0,0-3.8,0L44.128,3.974,41.267,6.835l-6.128,6.128H7.806V4.252a.881.881,0,0,0-.881-.881A6.934,6.934,0,0,0,0,10.3V47.7a.883.883,0,0,0,.021.189A6.669,6.669,0,0,0,6.67,54.049H33.578L28.51,59.117a.881.881,0,0,0,.623,1.5H59.112a.881.881,0,0,0,.881-.881V29.761A.881.881,0,0,0,59.449,28.947ZM47.741,2.852a.925.925,0,0,1,1.306,0l2.737,2.737a.925.925,0,0,1,0,1.306L50.039,8.64,46,4.6Zm-2.99,2.99,4.043,4.043L47.178,11.5,43.135,7.458ZM58.232,39.655H56.607a.881.881,0,1,0,0,1.761h1.625v2.653H56.607a.881.881,0,1,0,0,1.761h1.625v2.653H56.607a.881.881,0,1,0,0,1.761h1.625V52.9H56.607a.881.881,0,1,0,0,1.761h1.625v4.2H31.258l8.894-8.894a.881.881,0,0,0-1.245-1.245l-3.569,3.569H6.67a4.881,4.881,0,0,1-4.905-4.751q.008-.251.039-.5v0q.015-.117.035-.233l0-.026q.018-.1.041-.205l.013-.057q.02-.086.043-.172c.008-.031.017-.062.026-.092s.026-.089.04-.134.029-.088.045-.132.021-.061.033-.092c.021-.058.044-.115.068-.171l.02-.049c.03-.07.061-.14.094-.208l0-.009a5.184,5.184,0,0,1,3.6-2.818l.013,0c.073-.015.146-.028.221-.039l.037-.006c.067-.01.135-.018.2-.026l.057-.007c.065-.007.131-.011.2-.015l.063,0q.129-.007.26-.007a.881.881,0,0,0,.881-.881V35.267a.881.881,0,0,0-1.761,0v5.56A6.878,6.878,0,0,0,2.09,42.741c-.114.112-.223.228-.329.346V10.3a5.173,5.173,0,0,1,4.284-5.09V31.745h0a.881.881,0,1,0,1.761,0h0V14.724H33.378L28.51,19.592a.881.881,0,0,0,1.245,1.245l6.371-6.371h0L41.89,8.7l4.043,4.043-.474.474h0L27.7,30.976l-4.043-4.043,3.5-3.5a.881.881,0,1,0-1.245-1.245l-4.122,4.122a.884.884,0,0,0-.062.069l-.018.025c-.012.017-.025.033-.036.051l-.018.031c-.01.016-.019.033-.028.05l-.016.034c-.008.017-.015.035-.022.052l-.008.018L19.868,31.5,18.7,34.814a.89.89,0,0,0-.035.134H15.735a.881.881,0,0,0,0,1.761H40.121a.881.881,0,1,0,0-1.761h-17.5l5.37-1.9.013-.006.062-.026.024-.011c.021-.011.042-.022.062-.035l.02-.012c.021-.014.042-.028.062-.044l.015-.011a.882.882,0,0,0,.071-.064l18.12-18.12h7.646V33.536l-12.6,12.6a.881.881,0,0,0,0,1.245.9.9,0,0,0,.067.06.88.88,0,0,0,1.178-.06h0L58.232,31.886Zm-32.14-7.8-2.522.89-1.68-1.68.89-2.522Z" transform="translate(0 -0.82)" fill="#bb945b"/>
            </g>
          </g>
        </g>
        <text id="طلب_اعتماد_تصاميم_الهوية_المعمارية" data-name="طلب اعتماد تصاميم
الهوية المعمارية" transform="translate(285 50)" fill="#0d1c2a" font-size="22" font-family="SegoeUI-Light, Segoe UI" font-weight="300"><tspan x="-165.892" y="0">طلب اعتماد تصاميم</tspan><tspan y="0"></tspan><tspan x="-127.606" y="30">الهوية المعمارية</tspan></text>
      </g>
      <g id="طلب_اعتماد-2" data-name="طلب اعتماد" transform="translate(66.002 171)">
        <g transform="matrix(1, 0, 0, 1, 1664, 121)" filter="url(#BG-4)">
          <rect id="BG-9" data-name="BG" width="309" height="120" transform="translate(-1664 -121)" fill="#fff"/>
        </g>
        <g id="Icon-2" data-name="Icon" transform="translate(24.998 29.18)">
          <g id="Group_126219-2" data-name="Group 126219" transform="translate(42.243 42.994)">
            <g id="Group_126218-2" data-name="Group 126218">
              <path id="Path_130193-2" data-name="Path 130193" d="M371.358,360.816a.881.881,0,0,0-.96.191l-9.623,9.623a.881.881,0,0,0,.623,1.5h9.623a.88.88,0,0,0,.881-.881V361.63A.881.881,0,0,0,371.358,360.816Zm-7.834,9.556,6.617-6.617v6.617Z" transform="translate(-360.517 -360.749)" fill="#bb945b"/>
            </g>
          </g>
          <g id="Group_126221-2" data-name="Group 126221" transform="translate(0 0.82)">
            <g id="Group_126220-2" data-name="Group 126220">
              <path id="Path_130194-2" data-name="Path 130194" d="M59.449,28.947a.88.88,0,0,0-.96.191l-2.637,2.637V13.844a.881.881,0,0,0-.881-.881H48.206l2.456-2.456h0L53.029,8.14a2.685,2.685,0,0,0,0-3.8L50.293,1.606a2.685,2.685,0,0,0-3.8,0L44.128,3.974,41.267,6.835l-6.128,6.128H7.806V4.252a.881.881,0,0,0-.881-.881A6.934,6.934,0,0,0,0,10.3V47.7a.883.883,0,0,0,.021.189A6.669,6.669,0,0,0,6.67,54.049H33.578L28.51,59.117a.881.881,0,0,0,.623,1.5H59.112a.881.881,0,0,0,.881-.881V29.761A.881.881,0,0,0,59.449,28.947ZM47.741,2.852a.925.925,0,0,1,1.306,0l2.737,2.737a.925.925,0,0,1,0,1.306L50.039,8.64,46,4.6Zm-2.99,2.99,4.043,4.043L47.178,11.5,43.135,7.458ZM58.232,39.655H56.607a.881.881,0,1,0,0,1.761h1.625v2.653H56.607a.881.881,0,1,0,0,1.761h1.625v2.653H56.607a.881.881,0,1,0,0,1.761h1.625V52.9H56.607a.881.881,0,1,0,0,1.761h1.625v4.2H31.258l8.894-8.894a.881.881,0,0,0-1.245-1.245l-3.569,3.569H6.67a4.881,4.881,0,0,1-4.905-4.751q.008-.251.039-.5v0q.015-.117.035-.233l0-.026q.018-.1.041-.205l.013-.057q.02-.086.043-.172c.008-.031.017-.062.026-.092s.026-.089.04-.134.029-.088.045-.132.021-.061.033-.092c.021-.058.044-.115.068-.171l.02-.049c.03-.07.061-.14.094-.208l0-.009a5.184,5.184,0,0,1,3.6-2.818l.013,0c.073-.015.146-.028.221-.039l.037-.006c.067-.01.135-.018.2-.026l.057-.007c.065-.007.131-.011.2-.015l.063,0q.129-.007.26-.007a.881.881,0,0,0,.881-.881V35.267a.881.881,0,0,0-1.761,0v5.56A6.878,6.878,0,0,0,2.09,42.741c-.114.112-.223.228-.329.346V10.3a5.173,5.173,0,0,1,4.284-5.09V31.745h0a.881.881,0,1,0,1.761,0h0V14.724H33.378L28.51,19.592a.881.881,0,0,0,1.245,1.245l6.371-6.371h0L41.89,8.7l4.043,4.043-.474.474h0L27.7,30.976l-4.043-4.043,3.5-3.5a.881.881,0,1,0-1.245-1.245l-4.122,4.122a.884.884,0,0,0-.062.069l-.018.025c-.012.017-.025.033-.036.051l-.018.031c-.01.016-.019.033-.028.05l-.016.034c-.008.017-.015.035-.022.052l-.008.018L19.868,31.5,18.7,34.814a.89.89,0,0,0-.035.134H15.735a.881.881,0,0,0,0,1.761H40.121a.881.881,0,1,0,0-1.761h-17.5l5.37-1.9.013-.006.062-.026.024-.011c.021-.011.042-.022.062-.035l.02-.012c.021-.014.042-.028.062-.044l.015-.011a.882.882,0,0,0,.071-.064l18.12-18.12h7.646V33.536l-12.6,12.6a.881.881,0,0,0,0,1.245.9.9,0,0,0,.067.06.88.88,0,0,0,1.178-.06h0L58.232,31.886Zm-32.14-7.8-2.522.89-1.68-1.68.89-2.522Z" transform="translate(0 -0.82)" fill="#bb945b"/>
            </g>
          </g>
        </g>
        <text id="طلب_اعتماد_تصاميم_عمرانية" data-name="طلب اعتماد تصاميم
عمرانية" transform="translate(285 50)" fill="#0d1c2a" font-size="22" font-family="SegoeUI-Light, Segoe UI" font-weight="300"><tspan x="-165.892" y="0">طلب اعتماد تصاميم</tspan><tspan y="0"></tspan><tspan x="-57.922" y="30">عمرانية</tspan></text>
      </g>
    </g>
  </g>
</svg>
