<svg xmlns="http://www.w3.org/2000/svg" width="32.067" height="28.242" viewBox="0 0 32.067 28.242">
  <g id="Eye" transform="translate(-1.966 -3.879)">
    <path id="Path_130143" data-name="Path 130143" d="M10.309,25.694a30.388,30.388,0,0,1-6.2-6.135,2.54,2.54,0,0,1,0-3.116C6.354,13.519,11.727,7.5,18,7.5a13.5,13.5,0,0,1,7.695,2.811" fill="none" stroke="#fff" stroke-linecap="round" stroke-linejoin="round" stroke-width="3"/>
    <path id="Path_130144" data-name="Path 130144" d="M21.195,14.83a4.5,4.5,0,1,0-6.365,6.363M6,30,30,6M15,28.056a10.686,10.686,0,0,0,3,.444c6.273,0,11.646-6.019,13.885-8.943a2.541,2.541,0,0,0,0-3.117,34.408,34.408,0,0,0-2.529-2.94" fill="none" stroke="#fff" stroke-linecap="round" stroke-linejoin="round" stroke-width="3"/>
  </g>
</svg>
