<svg id="logo-white" xmlns="http://www.w3.org/2000/svg" width="318.02" height="100.34" viewBox="0 0 318.02 100.34">
  <g id="Brandmark">
    <g id="Group_9" data-name="Group 9">
      <g id="Group_4" data-name="Group 4">
        <g id="Group_1" data-name="Group 1">
          <path id="Path_1" data-name="Path 1" d="M90.73,69.07a.159.159,0,0,1-.15-.11L88.81,65.3H86.52c-.05,0-.07.02-.07.07v3.58c0,.08-.04.12-.13.12h-.47c-.08,0-.13-.04-.13-.12v-8.2a.106.106,0,0,1,.12-.12h2.84a2.724,2.724,0,0,1,1.89.62,2.18,2.18,0,0,1,.68,1.71,2.311,2.311,0,0,1-.45,1.46,2.247,2.247,0,0,1-1.27.78l1.84,3.74a.13.13,0,0,1,.02.1.089.089,0,0,1-.08.04h-.58Zm-2.05-4.45a2.03,2.03,0,0,0,1.39-.43,1.829,1.829,0,0,0,0-2.47,2,2,0,0,0-1.39-.43H86.53c-.05,0-.07.02-.07.07v3.18c0,.05.02.07.07.07h2.15Z" fill="#fff"/>
          <path id="Path_2" data-name="Path 2" d="M96.03,69.19a2.944,2.944,0,0,1-1.73-.48,2.692,2.692,0,0,1-1-1.42,2.735,2.735,0,0,1-.11-.37c-.03-.14-.05-.3-.07-.48s-.04-.41-.05-.66-.02-.57-.02-.93.01-.67.02-.93.03-.48.05-.66.05-.35.07-.48a2,2,0,0,1,.11-.37,2.773,2.773,0,0,1,1-1.42,2.966,2.966,0,0,1,1.73-.48,2.933,2.933,0,0,1,1.72.48,2.692,2.692,0,0,1,1,1.42c.03.12.07.24.1.37a3.975,3.975,0,0,1,.08.48c.02.19.04.41.05.66s.02.56.02.92-.01.68-.02.93-.03.48-.05.66a3.973,3.973,0,0,1-.08.48c-.03.14-.07.26-.1.37a2.773,2.773,0,0,1-1,1.42A2.866,2.866,0,0,1,96.03,69.19Zm2.25-4.35c0-.34-.01-.63-.02-.88s-.03-.46-.04-.63a3.214,3.214,0,0,0-.07-.43c-.03-.12-.06-.22-.08-.3a2.177,2.177,0,0,0-4.09,0c-.02.08-.05.18-.08.3a3.513,3.513,0,0,0-.07.43c-.02.17-.03.38-.04.63s-.02.54-.02.88.01.63.02.88.03.46.04.63a3.214,3.214,0,0,0,.07.43c.03.12.06.22.08.3a2.177,2.177,0,0,0,4.09,0c.02-.08.05-.18.08-.3a3.513,3.513,0,0,0,.07-.43c.02-.17.03-.38.04-.63S98.28,65.18,98.28,64.84Z" fill="#fff"/>
          <path id="Path_3" data-name="Path 3" d="M102.7,69.07c-.08,0-.13-.04-.13-.12V65.6l-2.53-4.84a.076.076,0,0,1,.01-.09.1.1,0,0,1,.09-.04h.48a.216.216,0,0,1,.19.12l2.13,4.04h.04l2.09-4.04a.2.2,0,0,1,.19-.12h.47a.105.105,0,0,1,.1.04.075.075,0,0,1,0,.09L103.3,65.6v3.34c0,.08-.04.12-.13.12h-.47Z" fill="#fff"/>
          <path id="Path_4" data-name="Path 4" d="M108.78,60.74a.142.142,0,0,1,.15-.12h.45a.156.156,0,0,1,.15.12l2.93,8.2c.02.08,0,.12-.09.12h-.48c-.09,0-.15-.04-.16-.12l-.75-2.07H107.3l-.75,2.07a.168.168,0,0,1-.16.12h-.48q-.12,0-.09-.12Zm1.96,5.43-1.58-4.41h-.04l-1.59,4.41Z" fill="#fff"/>
          <path id="Path_5" data-name="Path 5" d="M114.18,60.74c0-.08.04-.12.13-.12h.47c.08,0,.13.04.13.12v7.58c0,.05.02.07.07.07h4.17a.106.106,0,0,1,.12.12v.42a.106.106,0,0,1-.12.12h-4.84c-.08,0-.13-.04-.13-.12Z" fill="#fff"/>
          <path id="Path_6" data-name="Path 6" d="M124.1,67.3c-.03-.11-.06-.23-.09-.35a4.2,4.2,0,0,1-.07-.48c-.02-.19-.03-.42-.04-.68s-.02-.58-.02-.95.01-.69.02-.95.03-.49.04-.68a4.2,4.2,0,0,1,.07-.48c.03-.13.06-.25.09-.35a2.765,2.765,0,0,1,.99-1.42,2.894,2.894,0,0,1,1.68-.47,2.951,2.951,0,0,1,1.53.39,2.555,2.555,0,0,1,1.02,1.17c.03.07.02.13-.04.16l-.41.2c-.07.04-.12.02-.16-.05a2.48,2.48,0,0,0-.75-.88,2.015,2.015,0,0,0-1.19-.33,2.112,2.112,0,0,0-1.26.35,2.232,2.232,0,0,0-.73,1.05c-.02.08-.05.18-.07.3a3.714,3.714,0,0,0-.06.43c-.01.17-.03.38-.04.63s-.01.55-.01.91,0,.66.01.91.02.46.04.63.04.32.06.43.05.22.07.3a2.232,2.232,0,0,0,.73,1.05,2.045,2.045,0,0,0,1.26.35,2.015,2.015,0,0,0,1.19-.33,2.4,2.4,0,0,0,.75-.88c.04-.07.09-.09.16-.05l.41.2c.06.03.07.09.04.16a2.555,2.555,0,0,1-1.02,1.17,2.951,2.951,0,0,1-1.53.39,2.894,2.894,0,0,1-1.68-.47A2.5,2.5,0,0,1,124.1,67.3Z" fill="#fff"/>
          <path id="Path_7" data-name="Path 7" d="M133.85,69.19a2.944,2.944,0,0,1-1.73-.48,2.692,2.692,0,0,1-1-1.42,2.736,2.736,0,0,1-.11-.37c-.03-.14-.05-.3-.07-.48s-.04-.41-.05-.66-.02-.57-.02-.93.01-.67.02-.93.03-.48.05-.66.05-.35.07-.48a2,2,0,0,1,.11-.37,2.773,2.773,0,0,1,1-1.42,2.965,2.965,0,0,1,1.73-.48,2.933,2.933,0,0,1,1.72.48,2.692,2.692,0,0,1,1,1.42c.03.12.07.24.1.37a3.975,3.975,0,0,1,.08.48c.02.19.04.41.05.66s.02.57.02.93-.01.68-.02.93-.03.48-.05.66a3.975,3.975,0,0,1-.08.48c-.03.13-.07.26-.1.37a2.773,2.773,0,0,1-1,1.42A2.933,2.933,0,0,1,133.85,69.19Zm2.25-4.35c0-.34-.01-.63-.02-.88s-.03-.46-.04-.63a3.213,3.213,0,0,0-.07-.43c-.03-.12-.06-.22-.08-.3a2.177,2.177,0,0,0-4.09,0c-.02.08-.05.18-.08.3a3.514,3.514,0,0,0-.07.43c-.02.17-.03.38-.04.63s-.02.54-.02.88.01.63.02.88.03.46.04.63a3.213,3.213,0,0,0,.07.43c.03.12.06.22.08.3a2.177,2.177,0,0,0,4.09,0c.02-.08.05-.18.08-.3a3.514,3.514,0,0,0,.07-.43c.02-.17.03-.38.04-.63S136.1,65.18,136.1,64.84Z" fill="#fff"/>
          <path id="Path_8" data-name="Path 8" d="M138.86,60.74c0-.08.04-.12.13-.12h.48a.187.187,0,0,1,.19.12l2.74,6.05h.05l2.68-6.05a.175.175,0,0,1,.18-.12h.49c.08,0,.13.04.13.12v8.2c0,.08-.04.12-.13.12h-.47c-.08,0-.13-.04-.13-.12V62.33h-.04l-2.43,5.35a.313.313,0,0,1-.08.11.265.265,0,0,1-.14.03h-.25a.217.217,0,0,1-.21-.14l-2.43-5.35h-.04v6.61c0,.08-.04.12-.13.12h-.47c-.08,0-.13-.04-.13-.12v-8.2Z" fill="#fff"/>
          <path id="Path_9" data-name="Path 9" d="M148.22,60.74c0-.08.04-.12.13-.12h.48a.187.187,0,0,1,.19.12l2.74,6.05h.05l2.68-6.05a.175.175,0,0,1,.18-.12h.49c.08,0,.13.04.13.12v8.2c0,.08-.04.12-.13.12h-.47c-.08,0-.13-.04-.13-.12V62.33h-.04l-2.43,5.35a.313.313,0,0,1-.08.11.265.265,0,0,1-.14.03h-.25a.217.217,0,0,1-.21-.14l-2.43-5.35h-.04v6.61c0,.08-.04.12-.13.12h-.47c-.08,0-.13-.04-.13-.12v-8.2Z" fill="#fff"/>
          <path id="Path_10" data-name="Path 10" d="M157.57,60.74c0-.08.04-.12.13-.12h.47c.08,0,.13.04.13.12v8.2c0,.08-.04.12-.13.12h-.47c-.08,0-.13-.04-.13-.12Z" fill="#fff"/>
          <path id="Path_11" data-name="Path 11" d="M163.05,69.19a4.556,4.556,0,0,1-.82-.08,4.992,4.992,0,0,1-.78-.22,4.152,4.152,0,0,1-.67-.32,3.783,3.783,0,0,1-.53-.37c-.07-.06-.07-.12-.01-.17l.3-.37c.06-.07.12-.07.17-.01a5.1,5.1,0,0,0,1.05.6,3.453,3.453,0,0,0,1.37.27,2.5,2.5,0,0,0,1.6-.47,1.514,1.514,0,0,0,.58-1.25,1.572,1.572,0,0,0-.1-.58,1.293,1.293,0,0,0-.33-.48,1.913,1.913,0,0,0-.62-.36,4.366,4.366,0,0,0-.97-.22l-.39-.05a3.227,3.227,0,0,1-1.84-.73,1.973,1.973,0,0,1-.6-1.5,2.191,2.191,0,0,1,.72-1.74,2.848,2.848,0,0,1,1.94-.63,4.522,4.522,0,0,1,1.34.19,3.442,3.442,0,0,1,1.07.52c.07.04.08.1.02.17l-.25.38a.109.109,0,0,1-.17.02,4.729,4.729,0,0,0-1-.47,3.588,3.588,0,0,0-1.04-.16,2.058,2.058,0,0,0-1.41.45,1.547,1.547,0,0,0-.5,1.2,1.383,1.383,0,0,0,.45,1.06,2.823,2.823,0,0,0,1.53.55l.38.05a3.314,3.314,0,0,1,1.88.75,2.049,2.049,0,0,1,.59,1.52,2.413,2.413,0,0,1-.19.98,2.186,2.186,0,0,1-.57.78,2.6,2.6,0,0,1-.93.51A4.054,4.054,0,0,1,163.05,69.19Z" fill="#fff"/>
          <path id="Path_12" data-name="Path 12" d="M170.49,69.19a4.556,4.556,0,0,1-.82-.08,4.992,4.992,0,0,1-.78-.22,4.152,4.152,0,0,1-.67-.32,3.783,3.783,0,0,1-.53-.37c-.07-.06-.07-.12-.01-.17l.3-.37c.06-.07.12-.07.17-.01a5.1,5.1,0,0,0,1.05.6,3.453,3.453,0,0,0,1.37.27,2.5,2.5,0,0,0,1.6-.47,1.514,1.514,0,0,0,.58-1.25,1.572,1.572,0,0,0-.1-.58,1.293,1.293,0,0,0-.33-.48,1.913,1.913,0,0,0-.62-.36,4.366,4.366,0,0,0-.97-.22l-.39-.05a3.227,3.227,0,0,1-1.84-.73,1.973,1.973,0,0,1-.6-1.5,2.191,2.191,0,0,1,.72-1.74,2.848,2.848,0,0,1,1.94-.63,4.522,4.522,0,0,1,1.34.19,3.442,3.442,0,0,1,1.07.52c.07.04.08.1.02.17l-.25.38a.109.109,0,0,1-.17.02,4.729,4.729,0,0,0-1-.47,3.588,3.588,0,0,0-1.04-.16,2.058,2.058,0,0,0-1.41.45,1.547,1.547,0,0,0-.5,1.2,1.383,1.383,0,0,0,.45,1.06,2.823,2.823,0,0,0,1.53.55l.38.05a3.314,3.314,0,0,1,1.88.75,2.049,2.049,0,0,1,.59,1.52,2.413,2.413,0,0,1-.19.98,2.186,2.186,0,0,1-.57.78,2.6,2.6,0,0,1-.93.51A4.054,4.054,0,0,1,170.49,69.19Z" fill="#fff"/>
          <path id="Path_13" data-name="Path 13" d="M175.4,60.74c0-.08.04-.12.13-.12H176c.08,0,.13.04.13.12v8.2c0,.08-.04.12-.13.12h-.47c-.08,0-.13-.04-.13-.12Z" fill="#fff"/>
          <path id="Path_14" data-name="Path 14" d="M181.13,69.19a2.944,2.944,0,0,1-1.73-.48,2.692,2.692,0,0,1-1-1.42,2.736,2.736,0,0,1-.11-.37c-.03-.14-.05-.3-.07-.48s-.04-.41-.05-.66-.02-.57-.02-.93.01-.67.02-.93.03-.48.05-.66.05-.35.07-.48a2,2,0,0,1,.11-.37,2.773,2.773,0,0,1,1-1.42,2.965,2.965,0,0,1,1.73-.48,2.933,2.933,0,0,1,1.72.48,2.692,2.692,0,0,1,1,1.42c.03.12.07.24.1.37a3.975,3.975,0,0,1,.08.48c.02.19.04.41.05.66s.02.57.02.93-.01.68-.02.93-.03.48-.05.66a3.975,3.975,0,0,1-.08.48c-.03.14-.07.26-.1.37a2.773,2.773,0,0,1-1,1.42A2.933,2.933,0,0,1,181.13,69.19Zm2.25-4.35c0-.34-.01-.63-.02-.88s-.03-.46-.04-.63a3.213,3.213,0,0,0-.07-.43c-.03-.12-.06-.22-.08-.3a2.177,2.177,0,0,0-4.09,0c-.02.08-.05.18-.08.3a3.514,3.514,0,0,0-.07.43c-.02.17-.03.38-.04.63s-.02.54-.02.88.01.63.02.88.03.46.04.63a3.213,3.213,0,0,0,.07.43c.03.12.06.22.08.3a2.177,2.177,0,0,0,4.09,0c.02-.08.05-.18.08-.3a3.514,3.514,0,0,0,.07-.43c.02-.17.03-.38.04-.63S183.38,65.18,183.38,64.84Z" fill="#fff"/>
          <path id="Path_15" data-name="Path 15" d="M186.14,60.74c0-.08.04-.12.13-.12h.47a.215.215,0,0,1,.21.12l4.2,6.94h.04V60.74c0-.08.04-.12.13-.12h.47c.08,0,.13.04.13.12v8.2a.106.106,0,0,1-.12.12h-.48a.235.235,0,0,1-.21-.12l-4.17-6.96h-.05v6.96c0,.08-.04.12-.13.12h-.47c-.08,0-.13-.04-.13-.12v-8.2Z" fill="#fff"/>
          <path id="Path_16" data-name="Path 16" d="M197.7,60.74c0-.08.04-.12.13-.12h4.84a.106.106,0,0,1,.12.12v.42a.106.106,0,0,1-.12.12H198.5c-.05,0-.07.02-.07.07v3.09c0,.05.02.07.07.07h3.59a.106.106,0,0,1,.12.12v.42a.106.106,0,0,1-.12.12H198.5c-.05,0-.07.02-.07.07V68.9c0,.08-.04.12-.13.12h-.47c-.08,0-.13-.04-.13-.12V60.74Z" fill="#fff"/>
          <path id="Path_17" data-name="Path 17" d="M207.12,69.19a2.944,2.944,0,0,1-1.73-.48,2.692,2.692,0,0,1-1-1.42,2.736,2.736,0,0,1-.11-.37c-.03-.14-.05-.3-.07-.48s-.04-.41-.05-.66-.02-.57-.02-.93.01-.67.02-.93.03-.48.05-.66.05-.35.07-.48a2,2,0,0,1,.11-.37,2.773,2.773,0,0,1,1-1.42,2.965,2.965,0,0,1,1.73-.48,2.933,2.933,0,0,1,1.72.48,2.692,2.692,0,0,1,1,1.42c.03.12.07.24.1.37a3.975,3.975,0,0,1,.08.48c.02.19.04.41.05.66s.02.57.02.93-.01.68-.02.93-.03.48-.05.66a3.975,3.975,0,0,1-.08.48c-.03.14-.07.26-.1.37a2.773,2.773,0,0,1-1,1.42A2.933,2.933,0,0,1,207.12,69.19Zm2.25-4.35c0-.34-.01-.63-.02-.88s-.03-.46-.04-.63a3.213,3.213,0,0,0-.07-.43c-.03-.12-.06-.22-.08-.3a2.177,2.177,0,0,0-4.09,0c-.02.08-.05.18-.08.3a3.514,3.514,0,0,0-.07.43c-.02.17-.03.38-.04.63s-.02.54-.02.88.01.63.02.88.03.46.04.63a3.213,3.213,0,0,0,.07.43c.03.12.06.22.08.3a2.177,2.177,0,0,0,4.09,0c.02-.08.05-.18.08-.3a3.514,3.514,0,0,0,.07-.43c.02-.17.03-.38.04-.63S209.37,65.18,209.37,64.84Z" fill="#fff"/>
          <path id="Path_18" data-name="Path 18" d="M217.13,69.07a.159.159,0,0,1-.15-.11l-1.77-3.66h-2.29c-.05,0-.07.02-.07.07v3.58c0,.08-.04.12-.13.12h-.47c-.08,0-.13-.04-.13-.12v-8.2a.106.106,0,0,1,.12-.12h2.84a2.724,2.724,0,0,1,1.89.62,2.18,2.18,0,0,1,.68,1.71,2.311,2.311,0,0,1-.45,1.46,2.247,2.247,0,0,1-1.27.78l1.84,3.74a.13.13,0,0,1,.02.1.089.089,0,0,1-.08.04h-.58Zm-2.06-4.45a2.03,2.03,0,0,0,1.39-.43,1.829,1.829,0,0,0,0-2.47,2,2,0,0,0-1.39-.43h-2.15c-.05,0-.07.02-.07.07v3.18c0,.05.02.07.07.07h2.15Z" fill="#fff"/>
          <path id="Path_19" data-name="Path 19" d="M50.4,74.61c0-.08.04-.12.13-.12h.48a.187.187,0,0,1,.19.12l2.74,6.05h.05l2.68-6.05a.175.175,0,0,1,.18-.12h.49c.08,0,.13.04.13.12v8.2c0,.08-.04.12-.13.12h-.47c-.08,0-.13-.04-.13-.12V76.2H56.7l-2.43,5.35a.313.313,0,0,1-.08.11.265.265,0,0,1-.14.03H53.8a.217.217,0,0,1-.21-.14L51.16,76.2h-.04v6.61c0,.08-.04.12-.13.12h-.47c-.08,0-.13-.04-.13-.12v-8.2Z" fill="#fff"/>
          <path id="Path_20" data-name="Path 20" d="M62.14,74.61a.142.142,0,0,1,.15-.12h.45a.156.156,0,0,1,.15.12l2.93,8.2c.02.08,0,.12-.09.12h-.48c-.09,0-.15-.04-.16-.12l-.75-2.07H60.66l-.75,2.07a.168.168,0,0,1-.16.12h-.48q-.12,0-.09-.12Zm1.96,5.43-1.58-4.41h-.04l-1.59,4.41H64.1Z" fill="#fff"/>
          <path id="Path_21" data-name="Path 21" d="M67.53,74.61c0-.08.04-.12.13-.12h.47c.08,0,.13.04.13.12v4.87l4.02-4.88a.311.311,0,0,1,.21-.11h.58c.04,0,.07.01.08.04a.086.086,0,0,1-.03.09l-2.67,3.19,2.88,4.98a.13.13,0,0,1,.02.1.089.089,0,0,1-.08.04h-.56a.24.24,0,0,1-.19-.11l-2.55-4.43-1.73,2.06v2.36c0,.08-.04.12-.13.12h-.47c-.08,0-.13-.04-.13-.12v-8.2Z" fill="#fff"/>
          <path id="Path_22" data-name="Path 22" d="M75.1,74.61c0-.08.04-.12.13-.12h.47c.08,0,.13.04.13.12v4.87l4.02-4.88a.311.311,0,0,1,.21-.11h.58c.04,0,.07.01.08.04a.086.086,0,0,1-.03.09l-2.67,3.19,2.88,4.98a.13.13,0,0,1,.02.1.089.089,0,0,1-.08.04h-.56a.24.24,0,0,1-.19-.11l-2.55-4.43-1.73,2.06v2.36c0,.08-.04.12-.13.12h-.47c-.08,0-.13-.04-.13-.12v-8.2Z" fill="#fff"/>
          <path id="Path_23" data-name="Path 23" d="M85.25,74.61a.142.142,0,0,1,.15-.12h.45a.156.156,0,0,1,.15.12l2.93,8.2c.02.08,0,.12-.09.12h-.48c-.09,0-.15-.04-.16-.12l-.75-2.07H83.77l-.75,2.07a.168.168,0,0,1-.16.12h-.48q-.12,0-.09-.12Zm1.96,5.43-1.58-4.41h-.04L84,80.04Z" fill="#fff"/>
          <path id="Path_24" data-name="Path 24" d="M90.65,74.61c0-.08.04-.12.13-.12h.47c.08,0,.13.04.13.12v3.63c0,.05.02.07.07.07h4.16c.05,0,.07-.02.07-.07V74.61c0-.08.04-.12.13-.12h.47c.08,0,.13.04.13.12v8.2c0,.08-.04.12-.13.12H95.8c-.08,0-.13-.04-.13-.12V79.06c0-.05-.02-.07-.07-.07H91.44c-.05,0-.07.02-.07.07v3.75c0,.08-.04.12-.13.12h-.47c-.08,0-.13-.04-.13-.12v-8.2Z" fill="#fff"/>
          <path id="Path_25" data-name="Path 25" d="M102.06,81.17c-.03-.11-.06-.23-.09-.35a4.2,4.2,0,0,1-.07-.48c-.02-.19-.03-.42-.04-.68s-.02-.58-.02-.95.01-.69.02-.95.03-.49.04-.68a4.2,4.2,0,0,1,.07-.48c.03-.13.06-.25.09-.35a2.765,2.765,0,0,1,.99-1.42,2.894,2.894,0,0,1,1.68-.47,2.951,2.951,0,0,1,1.53.39,2.555,2.555,0,0,1,1.02,1.17c.03.07.02.13-.04.16l-.41.2c-.07.04-.12.02-.16-.05a2.48,2.48,0,0,0-.75-.88,2.015,2.015,0,0,0-1.19-.33,2.112,2.112,0,0,0-1.26.35,2.232,2.232,0,0,0-.73,1.05c-.02.08-.05.18-.07.3a3.714,3.714,0,0,0-.06.43c-.02.17-.03.38-.04.63s-.01.55-.01.91,0,.66.01.91.02.46.04.63.04.32.06.43.05.22.07.3a2.232,2.232,0,0,0,.73,1.05,2.045,2.045,0,0,0,1.26.35,2.015,2.015,0,0,0,1.19-.33,2.4,2.4,0,0,0,.75-.88c.04-.07.09-.09.16-.05l.41.2c.06.03.07.09.04.16a2.555,2.555,0,0,1-1.02,1.17,2.951,2.951,0,0,1-1.53.39,2.894,2.894,0,0,1-1.68-.47A2.5,2.5,0,0,1,102.06,81.17Z" fill="#fff"/>
          <path id="Path_26" data-name="Path 26" d="M109.14,74.61c0-.08.04-.12.13-.12h.47c.08,0,.13.04.13.12v8.2c0,.08-.04.12-.13.12h-.47c-.08,0-.13-.04-.13-.12Z" fill="#fff"/>
          <path id="Path_27" data-name="Path 27" d="M114.28,82.93c-.08,0-.13-.04-.13-.12V75.23c0-.05-.02-.07-.07-.07h-2.43a.106.106,0,0,1-.12-.12v-.42a.106.106,0,0,1,.12-.12h5.74a.106.106,0,0,1,.12.12v.42a.106.106,0,0,1-.12.12h-2.43c-.05,0-.07.02-.07.07v7.58c0,.08-.04.12-.13.12Z" fill="#fff"/>
          <path id="Path_28" data-name="Path 28" d="M121.41,82.93c-.08,0-.13-.04-.13-.12V79.47l-2.53-4.84a.076.076,0,0,1,.01-.09.1.1,0,0,1,.09-.04h.48a.216.216,0,0,1,.19.12l2.13,4.04h.04l2.09-4.04a.2.2,0,0,1,.19-.12h.47a.105.105,0,0,1,.1.04.075.075,0,0,1,0,.09l-2.53,4.84v3.34c0,.08-.04.12-.13.12Z" fill="#fff"/>
          <path id="Path_29" data-name="Path 29" d="M131.66,74.61a.142.142,0,0,1,.15-.12h.45a.156.156,0,0,1,.15.12l2.93,8.2c.02.08,0,.12-.09.12h-.48c-.09,0-.15-.04-.16-.12l-.75-2.07h-3.68l-.75,2.07a.168.168,0,0,1-.16.12h-.48q-.12,0-.09-.12Zm1.96,5.43-1.58-4.41H132l-1.59,4.41h3.21Z" fill="#fff"/>
          <path id="Path_30" data-name="Path 30" d="M137.06,74.61c0-.08.04-.12.13-.12h.47a.215.215,0,0,1,.21.12l4.2,6.94h.04V74.61c0-.08.04-.12.13-.12h.47c.08,0,.13.04.13.12v8.2a.106.106,0,0,1-.12.12h-.48a.235.235,0,0,1-.21-.12l-4.17-6.96h-.05v6.96c0,.08-.04.12-.13.12h-.47c-.08,0-.13-.04-.13-.12v-8.2Z" fill="#fff"/>
          <path id="Path_31" data-name="Path 31" d="M145.12,74.61a.106.106,0,0,1,.12-.12h2.65a2.519,2.519,0,0,1,2.7,1.71c.04.12.08.25.11.38a4.2,4.2,0,0,1,.07.48,6.228,6.228,0,0,1,.04.68c.01.27.01.59.01.97s0,.71-.01.98-.02.48-.04.67-.05.35-.07.48a2.846,2.846,0,0,1-.11.39,2.5,2.5,0,0,1-2.7,1.71h-2.65a.106.106,0,0,1-.12-.12Zm.72,7.58c0,.05.02.07.07.07h1.88a2.725,2.725,0,0,0,1.35-.3,1.7,1.7,0,0,0,.76-.98c.03-.1.06-.21.09-.32a3.712,3.712,0,0,0,.06-.43c.02-.17.03-.38.04-.62s.01-.54.01-.9,0-.66-.01-.9-.02-.45-.04-.62-.04-.31-.06-.43a1.5,1.5,0,0,0-.09-.32,1.642,1.642,0,0,0-.76-.97,2.7,2.7,0,0,0-1.35-.3h-1.88c-.05,0-.07.02-.07.07Z" fill="#fff"/>
          <path id="Path_32" data-name="Path 32" d="M156.3,74.61c0-.08.04-.12.13-.12h.47c.08,0,.13.04.13.12v3.63c0,.05.02.07.07.07h4.16c.05,0,.07-.02.07-.07V74.61c0-.08.04-.12.13-.12h.47c.08,0,.13.04.13.12v8.2c0,.08-.04.12-.13.12h-.47c-.08,0-.13-.04-.13-.12V79.06c0-.05-.02-.07-.07-.07H157.1c-.05,0-.07.02-.07.07v3.75c0,.08-.04.12-.13.12h-.47c-.08,0-.13-.04-.13-.12Z" fill="#fff"/>
          <path id="Path_33" data-name="Path 33" d="M167.06,83.06a2.944,2.944,0,0,1-1.73-.48,2.692,2.692,0,0,1-1-1.42,2.736,2.736,0,0,1-.11-.37c-.03-.14-.05-.3-.07-.48s-.04-.41-.05-.66-.02-.57-.02-.93.01-.67.02-.93.03-.48.05-.66.05-.35.07-.48a2,2,0,0,1,.11-.37,2.773,2.773,0,0,1,1-1.42,2.894,2.894,0,0,1,1.73-.48,2.933,2.933,0,0,1,1.72.48,2.692,2.692,0,0,1,1,1.42c.03.12.07.24.1.37a3.974,3.974,0,0,1,.08.48c.02.19.04.41.05.66s.02.57.02.93-.01.68-.02.93-.03.48-.05.66a3.975,3.975,0,0,1-.08.48c-.03.14-.07.26-.1.37a2.773,2.773,0,0,1-1,1.42A2.933,2.933,0,0,1,167.06,83.06Zm2.25-4.35c0-.34-.01-.63-.02-.88s-.03-.46-.04-.63a3.213,3.213,0,0,0-.07-.43c-.03-.12-.06-.22-.08-.3a2.177,2.177,0,0,0-4.09,0c-.02.08-.05.18-.08.3a3.514,3.514,0,0,0-.07.43c-.02.17-.03.38-.04.63s-.02.54-.02.88.01.63.02.88.03.46.04.63a3.213,3.213,0,0,0,.07.43c.03.12.06.22.08.3a2.177,2.177,0,0,0,4.09,0c.02-.08.05-.18.08-.3a3.514,3.514,0,0,0,.07-.43c.02-.17.03-.38.04-.63S169.31,79.05,169.31,78.71Z" fill="#fff"/>
          <path id="Path_34" data-name="Path 34" d="M172.07,74.61c0-.08.04-.12.13-.12h.47c.08,0,.13.04.13.12v7.58c0,.05.02.07.07.07h4.17a.106.106,0,0,1,.12.12v.42a.106.106,0,0,1-.12.12H172.2c-.08,0-.13-.04-.13-.12V74.61Z" fill="#fff"/>
          <path id="Path_35" data-name="Path 35" d="M179.79,82.93c-.08,0-.13-.04-.13-.12V79.47l-2.53-4.84a.076.076,0,0,1,.01-.09.1.1,0,0,1,.09-.04h.48a.216.216,0,0,1,.19.12l2.13,4.04h.04l2.09-4.04a.2.2,0,0,1,.19-.12h.47a.105.105,0,0,1,.1.04.075.075,0,0,1,0,.09l-2.53,4.84v3.34c0,.08-.04.12-.13.12Z" fill="#fff"/>
          <path id="Path_36" data-name="Path 36" d="M190.3,83.06a4.556,4.556,0,0,1-.82-.08,4.992,4.992,0,0,1-.78-.22,4.152,4.152,0,0,1-.67-.32,3.783,3.783,0,0,1-.53-.37c-.07-.06-.07-.12-.01-.17l.3-.37c.06-.07.12-.07.17-.01a5.1,5.1,0,0,0,1.05.6,3.453,3.453,0,0,0,1.37.27,2.5,2.5,0,0,0,1.6-.47,1.514,1.514,0,0,0,.58-1.25,1.572,1.572,0,0,0-.1-.58,1.293,1.293,0,0,0-.33-.48,1.913,1.913,0,0,0-.62-.36,4.366,4.366,0,0,0-.97-.22l-.38-.05a3.227,3.227,0,0,1-1.84-.73,1.973,1.973,0,0,1-.6-1.5,2.191,2.191,0,0,1,.72-1.74,2.848,2.848,0,0,1,1.94-.63,4.522,4.522,0,0,1,1.34.19,3.442,3.442,0,0,1,1.07.52c.07.04.08.1.02.17l-.25.38a.109.109,0,0,1-.17.02,4.729,4.729,0,0,0-1-.47,3.588,3.588,0,0,0-1.04-.16,2.058,2.058,0,0,0-1.41.45,1.547,1.547,0,0,0-.5,1.2,1.383,1.383,0,0,0,.45,1.06,2.823,2.823,0,0,0,1.53.55l.38.05a3.314,3.314,0,0,1,1.88.75,2.049,2.049,0,0,1,.59,1.52,2.413,2.413,0,0,1-.19.98,2.186,2.186,0,0,1-.57.78,2.6,2.6,0,0,1-.93.51A4.12,4.12,0,0,1,190.3,83.06Z" fill="#fff"/>
          <path id="Path_37" data-name="Path 37" d="M195.21,74.61c0-.08.04-.12.13-.12h.47c.08,0,.13.04.13.12v8.2c0,.08-.04.12-.13.12h-.47c-.08,0-.13-.04-.13-.12Z" fill="#fff"/>
          <path id="Path_38" data-name="Path 38" d="M200.35,82.93c-.08,0-.13-.04-.13-.12V75.23c0-.05-.02-.07-.07-.07h-2.43a.106.106,0,0,1-.12-.12v-.42a.106.106,0,0,1,.12-.12h5.74a.106.106,0,0,1,.12.12v.42a.106.106,0,0,1-.12.12h-2.43c-.05,0-.07.02-.07.07v7.58c0,.08-.04.12-.13.12Z" fill="#fff"/>
          <path id="Path_39" data-name="Path 39" d="M205.23,74.61c0-.08.04-.12.13-.12h4.84a.106.106,0,0,1,.12.12v.42a.106.106,0,0,1-.12.12h-4.17c-.05,0-.07.02-.07.07v3.01c0,.05.02.07.07.07h3.59a.106.106,0,0,1,.12.12v.42a.106.106,0,0,1-.12.12h-3.59c-.05,0-.07.02-.07.07v3.13c0,.05.02.07.07.07h4.17a.106.106,0,0,1,.12.12v.42a.106.106,0,0,1-.12.12h-4.84c-.08,0-.13-.04-.13-.12Z" fill="#fff"/>
          <path id="Path_40" data-name="Path 40" d="M214.8,83.06a4.556,4.556,0,0,1-.82-.08,4.992,4.992,0,0,1-.78-.22,4.152,4.152,0,0,1-.67-.32,3.783,3.783,0,0,1-.53-.37c-.07-.06-.07-.12-.01-.17l.3-.37c.06-.07.12-.07.17-.01a5.1,5.1,0,0,0,1.05.6,3.453,3.453,0,0,0,1.37.27,2.5,2.5,0,0,0,1.6-.47,1.514,1.514,0,0,0,.58-1.25,1.572,1.572,0,0,0-.1-.58,1.293,1.293,0,0,0-.33-.48,1.913,1.913,0,0,0-.62-.36,4.366,4.366,0,0,0-.97-.22l-.38-.05a3.227,3.227,0,0,1-1.84-.73,1.973,1.973,0,0,1-.6-1.5,2.191,2.191,0,0,1,.72-1.74,2.848,2.848,0,0,1,1.94-.63,4.522,4.522,0,0,1,1.34.19,3.442,3.442,0,0,1,1.07.52c.07.04.08.1.02.17l-.25.38a.109.109,0,0,1-.17.02,4.729,4.729,0,0,0-1-.47,3.588,3.588,0,0,0-1.04-.16,2.058,2.058,0,0,0-1.41.45,1.547,1.547,0,0,0-.5,1.2,1.383,1.383,0,0,0,.45,1.06,2.823,2.823,0,0,0,1.53.55l.38.05a3.314,3.314,0,0,1,1.88.75,2.049,2.049,0,0,1,.59,1.52,2.413,2.413,0,0,1-.19.98,2.186,2.186,0,0,1-.57.78,2.6,2.6,0,0,1-.93.51A4.075,4.075,0,0,1,214.8,83.06Z" fill="#fff"/>
        </g>
        <g id="Group_3" data-name="Group 3">
          <g id="Group_2" data-name="Group 2">
            <path id="Path_41" data-name="Path 41" d="M23.06,18.37a1.142,1.142,0,0,0-1.13,1.13,1.129,1.129,0,0,0,1.13,1.13,1.13,1.13,0,1,0,0-2.26Zm-2.78,0a1.133,1.133,0,0,0-1.12,1.13,1.108,1.108,0,0,0,1.12,1.13,1.13,1.13,0,0,0,0-2.26Z" fill="#fff"/>
            <path id="Path_42" data-name="Path 42" d="M44.47,21.58a4.135,4.135,0,0,0-4.51,4.21,2.864,2.864,0,0,0,.96,2.48,3.653,3.653,0,0,0-.96-.12H37.85c-.17-3.33-1.65-5.06-3.84-6.05l4.23-2.56V17.27l-6.87,4.31v1.68c2.76.64,4.15,2.2,4.24,4.89H25.52V22.18a11.317,11.317,0,0,0-3.64-.6c-3.18,0-4.58,2.08-4.58,4.35,0,2.47,1.27,4.03,4.63,4.03H48.39V25.57C48.39,23.14,47.18,21.58,44.47,21.58ZM23.3,28.16H22.19c-1.82,0-2.6-.85-2.6-2.43a2.083,2.083,0,0,1,2.06-2.34,4.219,4.219,0,0,1,1.65.31v4.46Zm22.85,0H44.83c-1.8,0-2.6-.8-2.6-2.43a2.083,2.083,0,0,1,2.06-2.34c1.16,0,1.86.73,1.86,2.47v2.3Z" fill="#fff"/>
            <path id="Path_43" data-name="Path 43" d="M59.93,18.37A1.142,1.142,0,0,0,58.8,19.5a1.122,1.122,0,0,0,1.13,1.13,1.13,1.13,0,1,0,0-2.26Zm-2.78,0a1.142,1.142,0,0,0-1.13,1.13,1.13,1.13,0,1,0,1.13-1.13Z" fill="#fff"/>
            <path id="Path_44" data-name="Path 44" d="M71.2,18.36a1.2,1.2,0,1,0,1.2,1.19A1.213,1.213,0,0,0,71.2,18.36Z" fill="#fff"/>
            <path id="Path_45" data-name="Path 45" d="M78.4,31.23a1.125,1.125,0,1,0,0,2.25,1.125,1.125,0,1,0,0-2.25Zm-2.78,0a1.125,1.125,0,1,0,0,2.25,1.125,1.125,0,1,0,0-2.25Z" fill="#fff"/>
            <path id="Path_46" data-name="Path 46" d="M75.92,21.81v6.35H72.35V21.81H70.06v6.35H62.39V22.19a11.317,11.317,0,0,0-3.64-.6c-3.18,0-4.58,2.08-4.58,4.35,0,2.47,1.27,4.03,4.63,4.03H78.22V21.81h-2.3ZM60.17,28.16H59.06c-1.82,0-2.6-.85-2.6-2.43a2.083,2.083,0,0,1,2.06-2.34,4.219,4.219,0,0,1,1.65.31v4.46Z" fill="#fff"/>
            <path id="Path_47" data-name="Path 47" d="M101.92,17.73V28.16H98.75V25.58c0-2.43-1.21-3.99-3.92-3.99a4.135,4.135,0,0,0-4.51,4.21c0,1.79-.67,2.36-1.72,2.36h-.83c-.21-3.87-2.2-5.83-5.78-6.77l-.55,1.91c2.74.69,3.99,2.29,4.09,4.85H80.4v1.81h8.45c1.46,0,2.15-.54,2.47-1.34.61.8,1.39,1.34,3.88,1.34h9.02V17.73Zm-5.4,10.43H95.2c-1.8,0-2.6-.8-2.6-2.43a2.083,2.083,0,0,1,2.06-2.34c1.16,0,1.86.73,1.86,2.47Z" fill="#fff"/>
            <path id="Path_48" data-name="Path 48" d="M116.03,18.37a1.133,1.133,0,0,0-1.12,1.13,1.12,1.12,0,0,0,1.12,1.13,1.13,1.13,0,0,0,0-2.26Zm-2.78,0a1.133,1.133,0,0,0-1.12,1.13,1.108,1.108,0,0,0,1.12,1.13,1.13,1.13,0,0,0,0-2.26Z" fill="#fff"/>
            <path id="Path_49" data-name="Path 49" d="M125.49,31.23a1.125,1.125,0,1,0,0,2.25,1.125,1.125,0,0,0,0-2.25Zm2.78,0a1.125,1.125,0,1,0,0,2.25,1.125,1.125,0,0,0,0-2.25Z" fill="#fff"/>
            <path id="Path_50" data-name="Path 50" d="M156.77,17.73V28.16h-3.18V25.58c0-2.43-1.21-3.99-3.92-3.99a4.14,4.14,0,0,0-4.51,4.21c0,1.79-.68,2.36-1.72,2.36h-1.65V17.73H139.5V28.16h-2.83c-.17-3.33-1.65-5.06-3.84-6.05l4.23-2.56V17.28l-6.87,4.31v1.68c2.76.64,4.15,2.2,4.24,4.89h-6.41V21.81h-2.29v6.35h-7.25V22.19a11.317,11.317,0,0,0-3.64-.6c-3.18,0-4.58,2.08-4.58,4.35,0,2.47,1.27,4.03,4.64,4.03h28.78c1.45,0,2.15-.54,2.47-1.34.6.8,1.38,1.34,3.88,1.34h9.02V17.73Zm-40.5,10.43h-1.11c-1.82,0-2.6-.85-2.6-2.43a2.083,2.083,0,0,1,2.06-2.34,4.219,4.219,0,0,1,1.65.31Zm35.08,0h-1.32c-1.81,0-2.6-.8-2.6-2.43a2.083,2.083,0,0,1,2.06-2.34c1.16,0,1.86.73,1.86,2.47v2.3Z" fill="#fff"/>
            <path id="Path_51" data-name="Path 51" d="M161.83,17.73h2.29V29.96h-2.29Z" fill="#fff"/>
            <path id="Path_52" data-name="Path 52" d="M175.96,18.37a1.142,1.142,0,0,0-1.13,1.13,1.122,1.122,0,0,0,1.13,1.13,1.142,1.142,0,0,0,1.13-1.13A1.155,1.155,0,0,0,175.96,18.37Zm-2.78,0a1.142,1.142,0,0,0-1.13,1.13,1.13,1.13,0,1,0,1.13-1.13Z" fill="#fff"/>
            <path id="Path_53" data-name="Path 53" d="M187.73,19.74c-.97,0-1.25-.24-1.25-.64,0-.33.26-.59.85-.59a5.715,5.715,0,0,1,.94.1l.22-1.21a6.073,6.073,0,0,0-1.02-.1c-1.82,0-2.55.93-2.55,1.79a.866.866,0,0,0,.44.76,4.977,4.977,0,0,0-1.05-.1V21h4.48V19.75h-1.06Z" fill="#fff"/>
            <path id="Path_54" data-name="Path 54" d="M194.05,31.23a1.125,1.125,0,1,0,0,2.25,1.125,1.125,0,1,0,0-2.25Zm-2.78,0a1.125,1.125,0,1,0,0,2.25,1.125,1.125,0,1,0,0-2.25Z" fill="#fff"/>
            <path id="Path_55" data-name="Path 55" d="M210.45,17.73V28.16h-2.78v-.05c0-5.07-2.47-7.13-6.8-7.13a14.675,14.675,0,0,0-4.22.68l.22,1.79a12.486,12.486,0,0,1,3.71-.68c3.43,0,4.9,1.59,4.9,5.19v.21h-1.74v-.4c0-1.96-.87-3.66-3.19-3.66-2.1,0-3.33,1.23-3.33,2.92a1.893,1.893,0,0,0,.42,1.23,4.124,4.124,0,0,0-.78-.08h-3.04V21.83h-2.29v6.35h-3.58V21.83h-2.29v6.35h-7.25V22.21a11.342,11.342,0,0,0-3.65-.6c-3.17,0-4.58,2.08-4.58,4.35,0,2.47,1.27,4.03,4.63,4.03h37.91V17.73ZM176.2,28.16h-1.11c-1.83,0-2.6-.85-2.6-2.43a2.083,2.083,0,0,1,2.06-2.34,4.219,4.219,0,0,1,1.65.31v4.46Zm25.67.07h-1.14c-.89,0-1.65-.39-1.65-1.37a1.159,1.159,0,0,1,1.3-1.18c1.02,0,1.5.71,1.5,2.05v.5Z" fill="#fff"/>
            <path id="Path_56" data-name="Path 56" d="M215.51,17.73h2.29V29.96h-2.29Z" fill="#fff"/>
            <path id="Path_57" data-name="Path 57" d="M23.04,37.42a1.125,1.125,0,1,0,1.13,1.12A1.14,1.14,0,0,0,23.04,37.42Zm-2.78,0a1.131,1.131,0,0,0-1.12,1.12,1.125,1.125,0,1,0,1.12-1.12Z" fill="#fff"/>
            <path id="Path_58" data-name="Path 58" d="M40.68,40.16l-2.24.31a21.259,21.259,0,0,1,.51,4.65c0,.54-.03,1.38-.1,2.08h-.47c-1.6,0-2.06-.28-2.06-1.65V41.2h-2.2v3.92c0,1.68-.51,2.22-1.41,2.22-1.02,0-1.2-.68-1.2-2.24V41.89H29.22v3.16c0,1.7-.44,2.15-1.56,2.15H25.5V41.23a11.153,11.153,0,0,0-3.64-.61c-3.18,0-4.58,2.08-4.58,4.36,0,2.47,1.27,4.02,4.63,4.02h5.73a2.2,2.2,0,0,0,2.31-1.21,2.313,2.313,0,0,0,2.33,1.35A2.728,2.728,0,0,0,34.9,47.8c.51.96,1.43,1.2,3.25,1.2h2.86a33.837,33.837,0,0,0,.24-4.04A21.858,21.858,0,0,0,40.68,40.16Zm-17.4,7.05H22.17c-1.82,0-2.6-.85-2.6-2.43a2.078,2.078,0,0,1,2.06-2.34,4.219,4.219,0,0,1,1.65.31v4.46Z" fill="#fff"/>
            <path id="Path_59" data-name="Path 59" d="M55.54,37.42a1.14,1.14,0,0,0-1.13,1.12,1.13,1.13,0,1,0,1.13-1.12Zm2.77,0a1.14,1.14,0,0,0-1.13,1.12,1.122,1.122,0,0,0,1.13,1.13,1.125,1.125,0,1,0,0-2.25Z" fill="#fff"/>
            <path id="Path_60" data-name="Path 60" d="M75.36,36.78V47.21H72.19V44.62c0-2.42-1.21-3.99-3.92-3.99a4.142,4.142,0,0,0-4.51,4.22c0,1.79-.67,2.36-1.72,2.36h-.6c-.61,0-1.34.08-1.34.08a3.5,3.5,0,0,0,1-2.62c0-2.76-1.58-4.04-4.02-4.04a4.185,4.185,0,0,0-4.42,4.32,3.22,3.22,0,0,0,.82,2.34,8.447,8.447,0,0,0-1.08-.08H50.65c-.21-3.87-2.2-5.83-5.78-6.77l-.55,1.91c2.74.69,3.99,2.29,4.09,4.86H43.27v1.8H62.29c1.46,0,2.15-.53,2.47-1.34.61.8,1.39,1.34,3.88,1.34h9.02V36.78ZM56.87,47.21c-1.27,0-1.91-.82-1.91-2.45s.96-2.32,1.95-2.32c1.3,0,1.9.83,1.9,2.35C58.81,46.4,57.97,47.21,56.87,47.21Zm13.08,0H68.63c-1.8,0-2.6-.8-2.6-2.43a2.078,2.078,0,0,1,2.06-2.34c1.16,0,1.86.73,1.86,2.46Z" fill="#fff"/>
            <path id="Path_61" data-name="Path 61" d="M80.43,36.78h2.29V49.01H80.43Z" fill="#fff"/>
            <path id="Path_62" data-name="Path 62" d="M104.01,47.21v1.8H93.51v.07c0,2.22-.76,4.34-4.29,4.34a6.273,6.273,0,0,1-1.45-.17l.17-1.83a4.869,4.869,0,0,0,1.41.21c1.18,0,1.87-.56,1.87-2.43V40.86h2.29v6.35h4.23a3.019,3.019,0,0,1-1.34-2.59c0-2.15,1.47-3.99,4.53-3.99a7.431,7.431,0,0,1,2.15.33l-.4,1.82a4.749,4.749,0,0,0-1.8-.37,2.076,2.076,0,0,0-2.19,2.2c0,1.47,1.2,2.59,3.95,2.59h1.37Z" fill="#fff"/>
            <path id="Path_63" data-name="Path 63" d="M116.41,37.5a1.13,1.13,0,1,0,1.13,1.13A1.142,1.142,0,0,0,116.41,37.5Zm1.44-2.27a1.13,1.13,0,1,0,1.13,1.13A1.129,1.129,0,0,0,117.85,35.23Zm1.43,2.27a1.13,1.13,0,0,0,0,2.26,1.13,1.13,0,0,0,0-2.26Z" fill="#fff"/>
            <path id="Path_64" data-name="Path 64" d="M138.81,36.78V47.21h-3.18V44.62c0-2.42-1.21-3.99-3.92-3.99a4.142,4.142,0,0,0-4.51,4.22c0,1.79-.67,2.36-1.72,2.36h-1.57c.05-.77.07-1.54.07-2.24a21.456,21.456,0,0,0-.56-4.81l-2.24.31a21.259,21.259,0,0,1,.51,4.65c0,.54-.03,1.38-.1,2.08h-.47c-1.59,0-2.06-.28-2.06-1.65V41.2h-2.2v3.92c0,1.68-.51,2.22-1.41,2.22-1.02,0-1.2-.68-1.2-2.24V41.89h-2.29v3.16c0,1.7-.43,2.15-1.56,2.15h-2.15V36.78h-2.29V49.01h4.42a2.2,2.2,0,0,0,2.31-1.21,2.313,2.313,0,0,0,2.33,1.35,2.728,2.728,0,0,0,2.62-1.34c.51.96,1.43,1.2,3.25,1.2h4.86c1.45,0,2.15-.53,2.46-1.34.61.8,1.39,1.34,3.88,1.34h9.02V36.78ZM133.4,47.21h-1.32c-1.8,0-2.6-.8-2.6-2.43a2.078,2.078,0,0,1,2.06-2.34c1.16,0,1.86.73,1.86,2.46v2.31Z" fill="#fff"/>
            <path id="Path_65" data-name="Path 65" d="M143.87,36.78h2.29V49.01h-2.29Z" fill="#fff"/>
            <path id="Path_66" data-name="Path 66" d="M148.61,53.15l.14-1.87a14.777,14.777,0,0,0,2.71.29c1.8,0,3-.68,3-2.31V49h-1.37c-3.37,0-4.63-1.56-4.63-4.02,0-2.27,1.41-4.35,4.58-4.35a11.153,11.153,0,0,1,3.64.61v7.81c0,2.39-1.56,4.34-5.43,4.34A18.848,18.848,0,0,1,148.61,53.15Zm5.85-10.41a4.219,4.219,0,0,0-1.65-.31,2.083,2.083,0,0,0-2.06,2.34c0,1.58.78,2.43,2.6,2.43h1.11V42.74Z" fill="#fff"/>
            <path id="Path_67" data-name="Path 67" d="M168.49,37.42a1.125,1.125,0,1,0,1.13,1.12A1.14,1.14,0,0,0,168.49,37.42Zm-2.78,0a1.131,1.131,0,0,0-1.12,1.12,1.125,1.125,0,1,0,1.12-1.12Z" fill="#fff"/>
            <path id="Path_68" data-name="Path 68" d="M178.33,40.63a4.142,4.142,0,0,0-4.51,4.22,2.843,2.843,0,0,0,.96,2.47,3.873,3.873,0,0,0-.96-.11h-2.86V41.24a11.153,11.153,0,0,0-3.64-.61c-3.18,0-4.58,2.08-4.58,4.36,0,2.47,1.27,4.02,4.63,4.02h14.89V44.62C182.25,42.19,181.04,40.63,178.33,40.63Zm-9.6,6.58h-1.11c-1.82,0-2.6-.85-2.6-2.43a2.078,2.078,0,0,1,2.06-2.34,4.219,4.219,0,0,1,1.65.31v4.46Zm11.28,0h-1.32c-1.8,0-2.6-.8-2.6-2.43a2.078,2.078,0,0,1,2.06-2.34c1.16,0,1.86.73,1.86,2.46v2.31Z" fill="#fff"/>
            <path id="Path_69" data-name="Path 69" d="M210.44,36.78V47.21h-3.17V44.62c0-2.42-1.21-3.99-3.92-3.99a4.142,4.142,0,0,0-4.51,4.22c0,1.79-.67,2.36-1.72,2.36h-.9c-.17-3.33-1.65-5.07-3.84-6.06l4.24-2.55V36.33l-6.88,4.3v1.68c2.76.64,4.15,2.2,4.24,4.9h-5.99V40.86H185.7V49.2c0,1.87-.7,2.43-1.88,2.43a4.924,4.924,0,0,1-1.41-.21l-.17,1.83a6.341,6.341,0,0,0,1.45.17c3.52,0,4.29-2.12,4.29-4.34v-.07h9.37c1.46,0,2.15-.53,2.47-1.34.61.8,1.39,1.34,3.88,1.34h9.02V36.78Zm-5.41,10.43h-1.32c-1.8,0-2.6-.8-2.6-2.43a2.085,2.085,0,0,1,2.07-2.34c1.16,0,1.86.73,1.86,2.46v2.31Z" fill="#fff"/>
            <path id="Path_70" data-name="Path 70" d="M215.51,36.78h2.29V49.01h-2.29Z" fill="#fff"/>
          </g>
        </g>
      </g>
      <g id="Group_8" data-name="Group 8">
        <g id="Group_6" data-name="Group 6">
          <g id="Group_5" data-name="Group 5">
            <rect id="Rectangle_1" data-name="Rectangle 1" width="3.46" height="3.46" transform="translate(283.46 72.58)" fill="#fff"/>
            <rect id="Rectangle_2" data-name="Rectangle 2" width="3.46" height="3.46" transform="translate(283.46 79.49)" fill="#fff"/>
            <path id="Path_71" data-name="Path 71" d="M255.81,65.66V79.48h-3.46V72.57H235.07V82.94H280V72.57H262.72v6.91h-3.46V69.12h27.65V65.66ZM248.9,79.49H238.53V76.04H248.9Zm17.28-3.46h10.37v3.45H266.18Z" fill="#fff"/>
            <rect id="Rectangle_3" data-name="Rectangle 3" width="3.46" height="3.46" transform="translate(290.37 31.1)" fill="#fff"/>
            <rect id="Rectangle_4" data-name="Rectangle 4" width="3.46" height="3.46" transform="translate(297.29 31.1)" fill="#fff"/>
            <path id="Path_72" data-name="Path 72" d="M290.38,38.01V55.3h6.91v3.45H286.92V31.1h-3.45V62.21h13.82v3.45h-6.91V82.94h10.37V38.01Zm6.91,41.48h-3.46V69.12h3.46Zm0-27.65h-3.46V41.47h3.46Z" fill="#fff"/>
            <rect id="Rectangle_5" data-name="Rectangle 5" width="3.46" height="3.46" transform="translate(248.9 24.19)" fill="#fff"/>
            <rect id="Rectangle_6" data-name="Rectangle 6" width="3.46" height="3.46" transform="translate(248.9 17.28)" fill="#fff"/>
            <path id="Path_73" data-name="Path 73" d="M255.81,17.28V27.65h17.28V20.74h3.46V31.1H248.9v3.46H280V20.74h3.46v6.91h17.28V17.28Zm13.83,6.91H259.27V20.74h10.37Zm27.65,0H286.92V20.74h10.37Z" fill="#fff"/>
            <rect id="Rectangle_7" data-name="Rectangle 7" width="3.46" height="3.46" transform="translate(241.99 65.66)" fill="#fff"/>
            <rect id="Rectangle_8" data-name="Rectangle 8" width="3.46" height="3.46" transform="translate(235.08 65.66)" fill="#fff"/>
            <path id="Path_74" data-name="Path 74" d="M238.53,38.01V34.56h6.91V17.28H235.07V62.21h10.37V44.93h-6.91V41.48H248.9V69.13h3.45V38.01Zm0-17.27h3.46V31.1h-3.46Zm3.46,27.64V58.75h-3.46V48.38Z" fill="#fff"/>
          </g>
        </g>
        <g id="Group_7" data-name="Group 7">
          <path id="Path_75" data-name="Path 75" d="M272.33,46.03a7.181,7.181,0,0,1,.62,2.27,12.536,12.536,0,0,0-2.94-2.75c.09.12.18.25.26.38a5.963,5.963,0,0,1,.22,4.91,14.124,14.124,0,0,0-1.6-4.1c-.17-.28-.34-.55-.53-.82l.26,6.53a.743.743,0,0,1-.72.65.735.735,0,0,1-.72-.65l.26-6.52a8.669,8.669,0,0,0-.53.81,14.124,14.124,0,0,0-1.6,4.1,6,6,0,0,1,.22-4.91c.08-.13.17-.26.26-.38a12.733,12.733,0,0,0-2.94,2.75,5.457,5.457,0,0,1,2.12-4.05,4.288,4.288,0,0,1,1.43-.57v-.05a8.358,8.358,0,0,0-.86.09,13.026,13.026,0,0,0-3.6,1.09,5.3,5.3,0,0,1,3.42-2.41,3.183,3.183,0,0,1,.62-.03,12.249,12.249,0,0,0-2.41-.92,5.237,5.237,0,0,1,3.45.23,6.4,6.4,0,0,1,.87-2.1,6.4,6.4,0,0,1,.87,2.1,5.175,5.175,0,0,1,3.45-.23,12.25,12.25,0,0,0-2.41.92,3.184,3.184,0,0,1,.62.03,4.122,4.122,0,0,1,1.87.79,6.025,6.025,0,0,1,1.56,1.62,13.026,13.026,0,0,0-3.6-1.09c-.29-.04-.57-.07-.86-.09v.05a4.288,4.288,0,0,1,1.43.57A4.148,4.148,0,0,1,272.33,46.03Z" fill="#fff"/>
          <path id="Path_76" data-name="Path 76" d="M280,50.54a6.26,6.26,0,0,0-3.96.88l-7.02,4.29,2.82,1.72.39-.64c-.01,0-.02-.01-.03-.01a.669.669,0,1,1,.92-.22l-.74,1.21.37.23.84.51a.964.964,0,0,0,.9.07.949.949,0,0,1-.07.44.549.549,0,0,1-.08.15.982.982,0,0,1-1.36.33l-1.21-.74-.39.64c.01,0,.02.01.03.01a.674.674,0,0,1,.22.92.668.668,0,0,1-.92.22.679.679,0,0,1-.22-.92l.74-1.21-3.32-2.03-3.32,2.03.74,1.21a.669.669,0,1,1-.92-.22c.01,0,.02-.01.03-.02l-.39-.64-1.21.74a.994.994,0,0,1-1.37-.33c-.03-.05-.05-.1-.08-.15a1.128,1.128,0,0,1-.07-.44.984.984,0,0,0,.91-.07l.84-.51.38-.23-.74-1.21a.669.669,0,1,1,.92.22c-.01,0-.02.01-.03.01l.39.64,2.82-1.72-7.02-4.29a6.26,6.26,0,0,0-3.96-.88,4.2,4.2,0,0,1,4.57-.11l7.53,4.6,7.53-4.6A4.191,4.191,0,0,1,280,50.54Z" fill="#fff"/>
        </g>
      </g>
    </g>
  </g>
  <g id="Clear_Space">
    <rect id="Rectangle_9" data-name="Rectangle 9" width="17.28" height="17.28" transform="translate(300.74)" fill="none"/>
    <rect id="Rectangle_10" data-name="Rectangle 10" width="17.28" height="17.28" transform="translate(300.74 83.06)" fill="none"/>
    <rect id="Rectangle_11" data-name="Rectangle 11" width="17.28" height="17.28" fill="none"/>
    <rect id="Rectangle_12" data-name="Rectangle 12" width="17.28" height="17.28" transform="translate(0 83.06)" fill="none"/>
  </g>
</svg>
