<svg xmlns="http://www.w3.org/2000/svg" width="45.362" height="60.482" viewBox="0 0 45.362 60.482">
  <g id="IconPDF" transform="translate(-64)">
    <g id="Group_126217" data-name="Group 126217" transform="translate(64)">
      <g id="Group_126216" data-name="Group 126216">
        <path id="Path_130185" data-name="Path 130185" d="M108.992,12.97,96.392.369A1.259,1.259,0,0,0,95.5,0H69.04A5.045,5.045,0,0,0,64,5.04v50.4a5.045,5.045,0,0,0,5.04,5.04h35.281a5.045,5.045,0,0,0,5.04-5.04V13.86A1.259,1.259,0,0,0,108.992,12.97ZM96.761,4.3l8.3,8.3H99.281a2.523,2.523,0,0,1-2.52-2.52Zm10.08,51.14a2.523,2.523,0,0,1-2.52,2.52H69.04a2.523,2.523,0,0,1-2.52-2.52V5.04a2.523,2.523,0,0,1,2.52-2.52h25.2v7.56a5.045,5.045,0,0,0,5.04,5.04h7.56Z" transform="translate(-64)" fill="#756b65"/>
        <path id="Path_130186" data-name="Path 130186" d="M149.545,187.5a36.518,36.518,0,0,1-3.013-2.6c-.96-.96-1.815-1.89-2.558-2.776,1.159-3.582,1.667-5.429,1.667-6.413,0-4.182-1.511-5.04-3.78-5.04-1.724,0-3.78.9-3.78,5.161,0,1.88,1.03,4.163,3.071,6.816-.5,1.525-1.087,3.283-1.746,5.265-.318.951-.662,1.832-1.026,2.647-.3.132-.585.266-.863.4-1,.5-1.953.951-2.835,1.37-4.024,1.9-6.682,3.165-6.682,5.653,0,1.806,1.963,2.925,3.78,2.925,2.343,0,5.881-3.129,8.465-8.4a50.133,50.133,0,0,1,8.649-2.333c2.109,1.622,4.438,3.174,5.567,3.174,3.124,0,3.78-1.806,3.78-3.321,0-2.979-3.4-2.979-5.04-2.979A29.846,29.846,0,0,0,149.545,187.5ZM131.78,198.387a1.991,1.991,0,0,1-1.26-.4c0-.893,2.664-2.156,5.241-3.376l.5-.235C134.367,197.115,132.5,198.387,131.78,198.387Zm8.82-22.56c0-2.641.82-2.641,1.26-2.641.891,0,1.26,0,1.26,2.52a20.2,20.2,0,0,1-1,3.935A7.742,7.742,0,0,1,140.6,175.827Zm.966,13.543q.118-.329.229-.664c.468-1.4.888-2.663,1.264-3.8q.784.864,1.691,1.769c.236.236.822.768,1.6,1.434C144.8,188.449,143.146,188.869,141.566,189.37Zm14.155.656c0,.566,0,.8-1.169.808a9.287,9.287,0,0,1-2.117-1.208c.356-.039.618-.059.765-.059C155.063,189.567,155.591,189.749,155.721,190.026Z" transform="translate(-120.44 -150.505)" fill="#756b65"/>
      </g>
    </g>
  </g>
</svg>
