<svg xmlns="http://www.w3.org/2000/svg" width="60" height="60" viewBox="0 0 60 60">
  <g id="IconNewReq" transform="translate(-241 -49)">
    <g id="Icon" transform="translate(241 49)">
      <g id="Group_126204" data-name="Group 126204" transform="translate(38.262 45.682) rotate(-45)">
        <path id="Path_130147" data-name="Path 130147" d="M0,1.3V6.515a1.3,1.3,0,0,0,1.3,1.3H11.726a1.3,1.3,0,0,0,0-2.606H2.606V1.3A1.3,1.3,0,1,0,0,1.3Z" fill="#756b65" fill-rule="evenodd"/>
      </g>
      <g id="Group_126205" data-name="Group 126205" transform="translate(7.817 20.873)">
        <path id="Path_130148" data-name="Path 130148" d="M156.817,67.866A2.865,2.865,0,0,0,153.951,65h-2.085A2.865,2.865,0,0,0,149,67.866v2.085a2.865,2.865,0,0,0,2.866,2.866h2.085a2.865,2.865,0,0,0,2.866-2.866Zm-2.606,0v2.085a.263.263,0,0,1-.261.261h-2.085a.263.263,0,0,1-.261-.261V67.866a.263.263,0,0,1,.261-.261h2.085a.263.263,0,0,1,.261.261Z" transform="translate(-149 -65)" fill="#756b65" fill-rule="evenodd"/>
      </g>
      <g id="Group_126206" data-name="Group 126206" transform="translate(7.817 31.31)">
        <path id="Path_130149" data-name="Path 130149" d="M156.817,67.866A2.865,2.865,0,0,0,153.951,65h-2.085A2.865,2.865,0,0,0,149,67.866v2.085a2.865,2.865,0,0,0,2.866,2.866h2.085a2.865,2.865,0,0,0,2.866-2.866Zm-2.606,0v2.085a.263.263,0,0,1-.261.261h-2.085a.263.263,0,0,1-.261-.261V67.866a.263.263,0,0,1,.261-.261h2.085a.263.263,0,0,1,.261.261Z" transform="translate(-149 -65)" fill="#756b65" fill-rule="evenodd"/>
      </g>
      <g id="Group_126207" data-name="Group 126207" transform="translate(7.817 41.746)">
        <path id="Path_130150" data-name="Path 130150" d="M156.817,67.866A2.865,2.865,0,0,0,153.951,65h-2.085A2.865,2.865,0,0,0,149,67.866v2.085a2.865,2.865,0,0,0,2.866,2.866h2.085a2.865,2.865,0,0,0,2.866-2.866Zm-2.606,0v2.085a.263.263,0,0,1-.261.261h-2.085a.263.263,0,0,1-.261-.261V67.866a.263.263,0,0,1,.261-.261h2.085a.263.263,0,0,1,.261.261Z" transform="translate(-149 -65)" fill="#756b65" fill-rule="evenodd"/>
      </g>
      <g id="Group_126208" data-name="Group 126208" transform="translate(18.264 20.873)">
        <path id="Path_130151" data-name="Path 130151" d="M156.817,67.866A2.865,2.865,0,0,0,153.951,65h-2.085A2.865,2.865,0,0,0,149,67.866v2.085a2.865,2.865,0,0,0,2.866,2.866h2.085a2.865,2.865,0,0,0,2.866-2.866Zm-2.606,0v2.085a.263.263,0,0,1-.261.261h-2.085a.263.263,0,0,1-.261-.261V67.866a.263.263,0,0,1,.261-.261h2.085a.263.263,0,0,1,.261.261Z" transform="translate(-149 -65)" fill="#756b65" fill-rule="evenodd"/>
      </g>
      <g id="Group_126209" data-name="Group 126209" transform="translate(18.264 31.31)">
        <path id="Path_130152" data-name="Path 130152" d="M156.817,67.866A2.865,2.865,0,0,0,153.951,65h-2.085A2.865,2.865,0,0,0,149,67.866v2.085a2.865,2.865,0,0,0,2.866,2.866h2.085a2.865,2.865,0,0,0,2.866-2.866Zm-2.606,0v2.085a.263.263,0,0,1-.261.261h-2.085a.263.263,0,0,1-.261-.261V67.866a.263.263,0,0,1,.261-.261h2.085a.263.263,0,0,1,.261.261Z" transform="translate(-149 -65)" fill="#756b65" fill-rule="evenodd"/>
      </g>
      <g id="Group_126210" data-name="Group 126210" transform="translate(18.264 41.746)">
        <path id="Path_130153" data-name="Path 130153" d="M156.817,67.866A2.865,2.865,0,0,0,153.951,65h-2.085A2.865,2.865,0,0,0,149,67.866v2.085a2.865,2.865,0,0,0,2.866,2.866h2.085a2.865,2.865,0,0,0,2.866-2.866Zm-2.606,0v2.085a.263.263,0,0,1-.261.261h-2.085a.263.263,0,0,1-.261-.261V67.866a.263.263,0,0,1,.261-.261h2.085a.263.263,0,0,1,.261.261Z" transform="translate(-149 -65)" fill="#756b65" fill-rule="evenodd"/>
      </g>
      <g id="Group_126211" data-name="Group 126211" transform="translate(28.7 20.873)">
        <path id="Path_130154" data-name="Path 130154" d="M156.817,67.866A2.865,2.865,0,0,0,153.951,65h-2.085A2.865,2.865,0,0,0,149,67.866v2.085a2.865,2.865,0,0,0,2.866,2.866h2.085a2.865,2.865,0,0,0,2.866-2.866Zm-2.606,0v2.085a.263.263,0,0,1-.261.261h-2.085a.263.263,0,0,1-.261-.261V67.866a.263.263,0,0,1,.261-.261h2.085a.263.263,0,0,1,.261.261Z" transform="translate(-149 -65)" fill="#756b65" fill-rule="evenodd"/>
      </g>
      <g id="Group_126212" data-name="Group 126212" transform="translate(39.137 20.873)">
        <path id="Path_130155" data-name="Path 130155" d="M156.817,67.866A2.865,2.865,0,0,0,153.951,65h-2.085A2.865,2.865,0,0,0,149,67.866v2.085a2.865,2.865,0,0,0,2.866,2.866h2.085a2.865,2.865,0,0,0,2.866-2.866Zm-2.606,0v2.085a.263.263,0,0,1-.261.261h-2.085a.263.263,0,0,1-.261-.261V67.866a.263.263,0,0,1,.261-.261h2.085a.263.263,0,0,1,.261.261Z" transform="translate(-149 -65)" fill="#756b65" fill-rule="evenodd"/>
      </g>
      <g id="Group_126213" data-name="Group 126213">
        <path id="Path_130156" data-name="Path 130156" d="M179.587,103.783H151.522A6.52,6.52,0,0,1,145,97.261V60.739a6.522,6.522,0,0,1,6.522-6.522h3.913v-1.3a3.913,3.913,0,1,1,7.826,0v1.3h18.261v-1.3a3.913,3.913,0,0,1,7.826,0v1.3h3.913a6.522,6.522,0,0,1,6.522,6.522V83.587a14.346,14.346,0,1,1-20.2,20.2Zm11.065-20.87a11.739,11.739,0,1,1-11.739,11.739A11.745,11.745,0,0,1,190.652,82.913Zm6.522-1.042V67.261H147.609v30a3.914,3.914,0,0,0,3.913,3.913h26.349a14.35,14.35,0,0,1,19.3-19.3Zm-7.826-25.045v1.3a3.913,3.913,0,1,1-7.826,0v-1.3H163.261v1.3a3.913,3.913,0,1,1-7.826,0v-1.3h-3.913a3.913,3.913,0,0,0-3.913,3.913v3.913h49.565V60.739a3.913,3.913,0,0,0-3.913-3.913Zm-2.609-3.913V58.13a1.3,1.3,0,1,1-2.609,0V52.913a1.3,1.3,0,1,1,2.609,0Zm-26.087,0V58.13a1.3,1.3,0,0,1-2.609,0V52.913a1.3,1.3,0,0,1,2.609,0Z" transform="translate(-145 -49)" fill="#756b65" fill-rule="evenodd"/>
      </g>
    </g>
  </g>
</svg>
