<svg xmlns="http://www.w3.org/2000/svg" width="47.139" height="60" viewBox="0 0 47.139 60">
  <g id="listIcon" transform="translate(-47.037 0)">
    <g id="Group_126215" data-name="Group 126215" transform="translate(47.037 0)">
      <g id="Group_126214" data-name="Group 126214">
        <path id="Path_130166" data-name="Path 130166" d="M88.177,7.861H82.749V5.433c0-.786-.857-1.143-1.643-1.143H76.892A6.389,6.389,0,0,0,70.535,0,6.5,6.5,0,0,0,64.179,4.29H60.036c-.786,0-1.571.357-1.571,1.143V7.861H53.037a6.071,6.071,0,0,0-6,5.785V54.572c0,3.143,2.857,5.428,6,5.428h35.14c3.143,0,6-2.285,6-5.428V13.647A6.071,6.071,0,0,0,88.177,7.861ZM61.322,7.147H65.25a1.572,1.572,0,0,0,1.357-1.286,4.142,4.142,0,0,1,3.928-3.214,4.071,4.071,0,0,1,3.857,3.214,1.571,1.571,0,0,0,1.428,1.286h4.071v5.714H61.322Zm30,47.425c0,1.571-1.571,2.571-3.143,2.571H53.037c-1.571,0-3.143-1-3.143-2.571V13.647a3.214,3.214,0,0,1,3.143-2.928h5.428v3.643a1.5,1.5,0,0,0,1.571,1.357h21.07a1.571,1.571,0,0,0,1.643-1.357V10.718h5.428a3.214,3.214,0,0,1,3.143,2.928V54.572Z" transform="translate(-47.037 0)" fill="#756b65"/>
        <path id="Path_130167" data-name="Path 130167" d="M110.3,230.757a1.428,1.428,0,0,0-2-.071l-4.571,4.357-1.928-2a1.429,1.429,0,0,0-2-.071,1.5,1.5,0,0,0,0,2.071l2.928,3a1.285,1.285,0,0,0,1,.429,1.428,1.428,0,0,0,1-.429l5.571-5.285a1.357,1.357,0,0,0,.082-1.917C110.351,230.81,110.324,230.783,110.3,230.757Z" transform="translate(-92.225 -198.826)" fill="#756b65"/>
        <path id="Path_130168" data-name="Path 130168" d="M216.4,256.034H199.976a1.428,1.428,0,1,0,0,2.857H216.4a1.428,1.428,0,1,0,0-2.857Z" transform="translate(-177.835 -221.032)" fill="#756b65"/>
        <path id="Path_130169" data-name="Path 130169" d="M110.3,147.165a1.428,1.428,0,0,0-2-.071l-4.571,4.357-1.928-2a1.428,1.428,0,0,0-2-.071,1.5,1.5,0,0,0,0,2.071l2.928,3a1.285,1.285,0,0,0,1,.429,1.428,1.428,0,0,0,1-.429l5.571-5.285a1.357,1.357,0,0,0,.082-1.917C110.351,147.219,110.324,147.191,110.3,147.165Z" transform="translate(-92.225 -126.662)" fill="#756b65"/>
        <path id="Path_130170" data-name="Path 130170" d="M216.4,172.442H199.976a1.428,1.428,0,0,0,0,2.857H216.4a1.428,1.428,0,0,0,0-2.857Z" transform="translate(-177.835 -148.868)" fill="#756b65"/>
        <path id="Path_130171" data-name="Path 130171" d="M110.3,314.348a1.429,1.429,0,0,0-2-.071l-4.571,4.357-1.928-2a1.429,1.429,0,0,0-2-.071,1.5,1.5,0,0,0,0,2.071l2.928,3a1.285,1.285,0,0,0,1,.429,1.428,1.428,0,0,0,1-.429l5.571-5.285a1.357,1.357,0,0,0,.082-1.917C110.351,314.4,110.324,314.375,110.3,314.348Z" transform="translate(-92.225 -270.99)" fill="#756b65"/>
        <path id="Path_130172" data-name="Path 130172" d="M216.4,339.626H199.976a1.428,1.428,0,0,0,0,2.857H216.4a1.428,1.428,0,1,0,0-2.857Z" transform="translate(-177.835 -293.196)" fill="#756b65"/>
      </g>
    </g>
  </g>
</svg>
