<svg xmlns="http://www.w3.org/2000/svg" width="59.993" height="59.8" viewBox="0 0 59.993 59.8">
  <g id="IconDes" transform="translate(0 -0.82)">
    <g id="Group_126219" data-name="Group 126219" transform="translate(42.243 42.994)">
      <g id="Group_126218" data-name="Group 126218">
        <path id="Path_130193" data-name="Path 130193" d="M371.358,360.816a.881.881,0,0,0-.96.191l-9.623,9.623a.881.881,0,0,0,.623,1.5h9.623a.88.88,0,0,0,.881-.881V361.63A.881.881,0,0,0,371.358,360.816Zm-7.834,9.556,6.617-6.617v6.617Z" transform="translate(-360.517 -360.749)" fill="#bb945b"/>
      </g>
    </g>
    <g id="Group_126221" data-name="Group 126221" transform="translate(0 0.82)">
      <g id="Group_126220" data-name="Group 126220">
        <path id="Path_130194" data-name="Path 130194" d="M59.449,28.947a.88.88,0,0,0-.96.191l-2.637,2.637V13.844a.881.881,0,0,0-.881-.881H48.206l2.456-2.456h0L53.029,8.14a2.685,2.685,0,0,0,0-3.8L50.293,1.606a2.685,2.685,0,0,0-3.8,0L44.128,3.974,41.267,6.835l-6.128,6.128H7.806V4.252a.881.881,0,0,0-.881-.881A6.934,6.934,0,0,0,0,10.3V47.7a.883.883,0,0,0,.021.189A6.669,6.669,0,0,0,6.67,54.049H33.578L28.51,59.117a.881.881,0,0,0,.623,1.5H59.112a.881.881,0,0,0,.881-.881V29.761A.881.881,0,0,0,59.449,28.947ZM47.741,2.852a.925.925,0,0,1,1.306,0l2.737,2.737a.925.925,0,0,1,0,1.306L50.039,8.64,46,4.6Zm-2.99,2.99,4.043,4.043L47.178,11.5,43.135,7.458ZM58.232,39.655H56.607a.881.881,0,1,0,0,1.761h1.625v2.653H56.607a.881.881,0,1,0,0,1.761h1.625v2.653H56.607a.881.881,0,1,0,0,1.761h1.625V52.9H56.607a.881.881,0,1,0,0,1.761h1.625v4.2H31.258l8.894-8.894a.881.881,0,0,0-1.245-1.245l-3.569,3.569H6.67a4.881,4.881,0,0,1-4.905-4.751q.008-.251.039-.5v0q.015-.117.035-.233l0-.026q.018-.1.041-.205l.013-.057q.02-.086.043-.172c.008-.031.017-.062.026-.092s.026-.089.04-.134.029-.088.045-.132.021-.061.033-.092c.021-.058.044-.115.068-.171l.02-.049c.03-.07.061-.14.094-.208l0-.009a5.184,5.184,0,0,1,3.6-2.818l.013,0c.073-.015.146-.028.221-.039l.037-.006c.067-.01.135-.018.2-.026l.057-.007c.065-.007.131-.011.2-.015l.063,0q.129-.007.26-.007a.881.881,0,0,0,.881-.881V35.267a.881.881,0,0,0-1.761,0v5.56A6.878,6.878,0,0,0,2.09,42.741c-.114.112-.223.228-.329.346V10.3a5.173,5.173,0,0,1,4.284-5.09V31.745h0a.881.881,0,1,0,1.761,0h0V14.724H33.378L28.51,19.592a.881.881,0,0,0,1.245,1.245l6.371-6.371h0L41.89,8.7l4.043,4.043-.474.474h0L27.7,30.976l-4.043-4.043,3.5-3.5a.881.881,0,1,0-1.245-1.245l-4.122,4.122a.884.884,0,0,0-.062.069l-.018.025c-.012.017-.025.033-.036.051l-.018.031c-.01.016-.019.033-.028.05l-.016.034c-.008.017-.015.035-.022.052l-.008.018L19.868,31.5,18.7,34.814a.89.89,0,0,0-.035.134H15.735a.881.881,0,0,0,0,1.761H40.121a.881.881,0,1,0,0-1.761h-17.5l5.37-1.9.013-.006.062-.026.024-.011c.021-.011.042-.022.062-.035l.02-.012c.021-.014.042-.028.062-.044l.015-.011a.882.882,0,0,0,.071-.064l18.12-18.12h7.646V33.536l-12.6,12.6a.881.881,0,0,0,0,1.245.9.9,0,0,0,.067.06.88.88,0,0,0,1.178-.06h0L58.232,31.886Zm-32.14-7.8-2.522.89-1.68-1.68.89-2.522Z" transform="translate(0 -0.82)" fill="#bb945b"/>
      </g>
    </g>
  </g>
</svg>
