<svg xmlns="http://www.w3.org/2000/svg" width="83.09" height="59.999" viewBox="0 0 83.09 59.999">
  <g id="IconReq" transform="translate(0 -71.143)">
    <path id="Path_130187" data-name="Path 130187" d="M316.249,304.079a1.217,1.217,0,0,0-1.217,1.217v6.167a3.5,3.5,0,0,1-3.495,3.495h-4.561a2.006,2.006,0,0,0-2,2v6.381l-9.118-7.9a2,2,0,0,0-1.312-.489H281a1.217,1.217,0,1,0,0,2.434h13.386l9.709,8.408a2.022,2.022,0,0,0,3.315-1.515v-6.893h4.13a5.936,5.936,0,0,0,5.929-5.929V305.3a1.217,1.217,0,0,0-1.217-1.217Z" transform="translate(-234.376 -195.134)" fill="#bb945b"/>
    <path id="Path_130188" data-name="Path 130188" d="M77.161,85.74H53.185V77.072a5.936,5.936,0,0,0-5.929-5.929h-30.1a1.217,1.217,0,0,0,0,2.434h30.1a3.5,3.5,0,0,1,3.495,3.495v24.66a3.5,3.5,0,0,1-3.495,3.495H22.923a2,2,0,0,0-1.312.489l-9.118,7.9v-6.381a2.006,2.006,0,0,0-2-2H5.929a3.5,3.5,0,0,1-3.495-3.495V77.072a3.5,3.5,0,0,1,3.495-3.495h5.918a1.217,1.217,0,1,0,0-2.434H5.929A5.936,5.936,0,0,0,0,77.072v24.66a5.936,5.936,0,0,0,5.929,5.929h4.13v6.893a2.022,2.022,0,0,0,3.315,1.515l9.709-8.408h6.822v8.668a5.936,5.936,0,0,0,5.929,5.929h5.483a1.217,1.217,0,1,0,0-2.434H35.834a3.5,3.5,0,0,1-3.495-3.495v-8.668H47.256a5.936,5.936,0,0,0,5.929-5.929V88.174H77.161a3.5,3.5,0,0,1,3.495,3.495v13.189a1.217,1.217,0,0,0,2.434,0V91.669a5.936,5.936,0,0,0-5.929-5.929Z" fill="#bb945b"/>
    <path id="Path_130189" data-name="Path 130189" d="M356.05,209.007h15.039a1.217,1.217,0,1,0,0-2.434H356.05a1.217,1.217,0,1,0,0,2.434Z" transform="translate(-297.249 -113.452)" fill="#bb945b"/>
    <path id="Path_130190" data-name="Path 130190" d="M356.05,264.878h15.039a1.217,1.217,0,1,0,0-2.434H356.05a1.217,1.217,0,1,0,0,2.434Z" transform="translate(-297.249 -160.256)" fill="#bb945b"/>
    <path id="Path_130191" data-name="Path 130191" d="M232.833,319.533a1.217,1.217,0,0,0,1.217,1.217h34.837a1.217,1.217,0,0,0,0-2.434H234.05A1.217,1.217,0,0,0,232.833,319.533Z" transform="translate(-195.047 -207.06)" fill="#bb945b"/>
    <circle id="Ellipse_9944" data-name="Ellipse 9944" cx="1.231" cy="1.231" r="1.231" transform="translate(25.362 96.931)" fill="#bb945b"/>
    <path id="Path_130192" data-name="Path 130192" d="M139.724,119.464a5.8,5.8,0,0,0-11.587.307,1.217,1.217,0,1,0,2.434,0,3.413,3.413,0,0,1,.032-.471,3.363,3.363,0,1,1,3.331,3.834,1.217,1.217,0,0,0-1.217,1.217v4.79a1.217,1.217,0,1,0,2.434,0v-3.7a5.827,5.827,0,0,0,2.987-1.676A5.752,5.752,0,0,0,139.724,119.464Z" transform="translate(-107.342 -35.88)" fill="#bb945b"/>
  </g>
</svg>
