<svg id="IconDate" xmlns="http://www.w3.org/2000/svg" width="59.992" height="59.991" viewBox="0 0 59.992 59.991">
  <path id="Path_61746" data-name="Path 61746" d="M56.306,15.065v-6.5a4.312,4.312,0,0,0-4.312-4.312H49.237V1.875A1.875,1.875,0,0,0,47.362,0H44.718a1.875,1.875,0,0,0-1.875,1.875V4.256H37.312V1.875A1.875,1.875,0,0,0,35.437,0H32.812a1.875,1.875,0,0,0-1.875,1.875V4.256H25.4V1.875A1.875,1.875,0,0,0,23.522,0H20.878A1.875,1.875,0,0,0,19,1.875V4.256H13.472V1.875A1.875,1.875,0,0,0,11.6,0H8.953A1.875,1.875,0,0,0,7.078,1.875V4.256H4.322A4.322,4.322,0,0,0,0,8.569V45.178A4.331,4.331,0,0,0,4.322,49.5H29A15.984,15.984,0,1,0,56.306,33.8ZM44.718,1.819l2.7.056V8.25a.066.066,0,0,1-.066.066l-2.7-.066Zm-11.906,0,2.681.056V8.25s0,.066-.056.066L32.728,8.25Zm-11.916,0,2.681.056V8.25a.066.066,0,0,1-.066.066l-2.7-.066Zm-11.925,0,2.681.056V5.156h0V8.25s0,.066-.056.066L8.887,8.25ZM1.819,8.569a2.5,2.5,0,0,1,2.5-2.494H7.078V8.25a1.875,1.875,0,0,0,1.875,1.875H11.6A1.875,1.875,0,0,0,13.472,8.25V6.075h5.522V8.25a1.875,1.875,0,0,0,1.875,1.875H23.5A1.875,1.875,0,0,0,25.378,8.25V6.075h5.559V8.25a1.875,1.875,0,0,0,1.875,1.875h2.625A1.875,1.875,0,0,0,37.312,8.25V6.075h5.522V8.25a1.875,1.875,0,0,0,1.875,1.875h2.634A1.875,1.875,0,0,0,49.218,8.25V6.075h2.756a2.494,2.494,0,0,1,2.494,2.494v5.625H1.819ZM28.444,47.681H4.322a2.512,2.512,0,0,1-2.5-2.5V15.937H54.487V31.875A15.937,15.937,0,0,0,28.444,47.681ZM58.181,44A14.184,14.184,0,1,1,44,29.822,14.184,14.184,0,0,1,58.181,44Z" fill="#bb945b"/>
  <path id="Path_61747" data-name="Path 61747" d="M26.586,19.71H20.567a.937.937,0,0,0-.937.937v5.625a.937.937,0,0,0,.937.937h6.019a.937.937,0,0,0,.937-.937V20.647A.937.937,0,0,0,26.586,19.71Zm-.937,5.625H21.477v-3.75h4.2Z" transform="translate(-1.227 -1.232)" fill="#bb945b"/>
  <path id="Path_61748" data-name="Path 61748" d="M39.884,26.222V20.6a.937.937,0,0,0-.937-.937H32.937A.937.937,0,0,0,32,20.6v5.625a.937.937,0,0,0,.937.937h6.019a.937.937,0,0,0,.928-.937Zm-1.819-.937H33.875v-3.75h4.2Z" transform="translate(-2 -1.229)" fill="#bb945b"/>
  <path id="Path_61749" data-name="Path 61749" d="M45.347,27.13h6.019a.937.937,0,0,0,.937-.937V20.567a.937.937,0,0,0-.937-.937H45.347a.937.937,0,0,0-.937.937v5.625A.937.937,0,0,0,45.347,27.13Zm.937-5.625h4.2v3.75H46.257Z" transform="translate(-2.776 -1.227)" fill="#bb945b"/>
  <path id="Path_61750" data-name="Path 61750" d="M14.2,30H8.177a.937.937,0,0,0-.937.937v5.625a.937.937,0,0,0,.937.937H14.2a.937.937,0,0,0,.937-.937V30.937A.937.937,0,0,0,14.2,30Zm-.937,5.625H9.087v-3.75h4.2Z" transform="translate(-0.453 -1.875)" fill="#bb945b"/>
  <path id="Path_61751" data-name="Path 61751" d="M26.586,30H20.567a.937.937,0,0,0-.937.937v5.625a.937.937,0,0,0,.937.937h6.019a.937.937,0,0,0,.937-.937V30.937A.937.937,0,0,0,26.586,30Zm-.937,5.625H21.477v-3.75h4.2Z" transform="translate(-1.227 -1.875)" fill="#bb945b"/>
  <path id="Path_61752" data-name="Path 61752" d="M14.2,40.27H8.177a.937.937,0,0,0-.937.937v5.625a.937.937,0,0,0,.937.937H14.2a.937.937,0,0,0,.937-.937V41.207A.937.937,0,0,0,14.2,40.27Zm-.937,5.625H9.087v-3.75h4.2Z" transform="translate(-0.453 -2.517)" fill="#bb945b"/>
  <path id="Path_61753" data-name="Path 61753" d="M26.586,40.27H20.567a.937.937,0,0,0-.937.937v5.625a.937.937,0,0,0,.937.937h6.019a.937.937,0,0,0,.937-.937V41.207A.937.937,0,0,0,26.586,40.27Zm-.937,5.625H21.477v-3.75h4.2Z" transform="translate(-1.227 -2.517)" fill="#bb945b"/>
  <path id="Path_61754" data-name="Path 61754" d="M55.783,50l-8.006-4.35V36.171a.937.937,0,1,0-1.809,0V46.184a.938.938,0,0,0,.469.806l8.437,4.6A.918.918,0,0,0,55.783,50Z" transform="translate(-2.871 -2.187)" fill="#bb945b"/>
</svg>
