<svg xmlns="http://www.w3.org/2000/svg" width="82.988" height="74.403" viewBox="0 0 82.988 74.403">
  <g id="mapIcon" transform="translate(-3 -6)">
    <path id="path4" d="M8.16,23.452a40.838,40.838,0,0,1,3.9,5.686A18.186,18.186,0,0,1,14.5,36.311c5.686,3.747,6.058,6.8,6.629,10.033.491,2.779,1.19,5.688,7.075,9.611a1.426,1.426,0,0,1,.617.956c.622,3.732,1.507,4.687,2.751,5.775a17.164,17.164,0,0,1,4.782,6.143c.13-.187.259-.388.382-.6a4.055,4.055,0,0,0,.7-2.355,1.432,1.432,0,0,1,.972-1.5,19.473,19.473,0,0,1,6.175-.924V66.3a16.857,16.857,0,0,0-4.327.507A7.9,7.9,0,0,1,39.2,69.672,13.856,13.856,0,0,1,36.968,72.5a1.433,1.433,0,0,1-2.291-.484c-2-4.669-3.659-6.011-4.994-7.177-1.547-1.355-2.769-2.5-3.58-6.849-6.519-4.491-7.229-7.93-7.8-11.149-.482-2.734-.82-5.3-5.967-8.515a1.432,1.432,0,0,1-.672-1.213,14.2,14.2,0,0,0-2.109-6.585,37.459,37.459,0,0,0-3.433-5.044Z" transform="translate(1.347 7.519)" fill="#bb945b" fill-rule="evenodd"/>
    <path id="path8" d="M65.624,35.8a19.246,19.246,0,0,0,3.294-.226c1.442-.031,2.769.325,4.335,2.674a1.431,1.431,0,0,1,.24.794,12.742,12.742,0,0,1-1.026,5.313c-.557,1.335-1.175,2.163-.478,4.251a1.431,1.431,0,0,1-.534,1.621c-5.748,4.051-16.344,7.416-22.287,7.416a5.218,5.218,0,0,0-2.852.661,5.136,5.136,0,0,0-1.87,2.763c-.382,1.007-.7,2.039-1.153,2.939a1.43,1.43,0,0,1-2.47.155,6.9,6.9,0,0,0-4.2-2.681A14.621,14.621,0,0,0,32,61.123v-2.86a17.455,17.455,0,0,1,5.334.446,10.848,10.848,0,0,1,4.2,2.03c.207-.581.418-1.168.677-1.726a7.138,7.138,0,0,1,2.342-2.965,7.756,7.756,0,0,1,4.622-1.265c5.228,0,14.34-2.833,19.8-6.333a6.3,6.3,0,0,1,.522-4.426,10.71,10.71,0,0,0,1.129-4.543,2.689,2.689,0,0,0-1.02-.949,1.9,1.9,0,0,0-.97-.074c-.391.039-.806.1-1.261.153a10.7,10.7,0,0,1-1.75.06Z" transform="translate(12.494 12.742)" fill="#bb945b" fill-rule="evenodd"/>
    <path id="path12" d="M20.908,6.956A51.14,51.14,0,0,1,39.37,19.9a17.1,17.1,0,0,1,8.259,2.112,6.242,6.242,0,0,0,5.094.786A1.432,1.432,0,0,1,54.5,24.189c0,4.889,4.932,7.306,4.932,7.306a1.429,1.429,0,0,1,.791,1.279,10.43,10.43,0,0,0,1.113,5.463,11.983,11.983,0,0,0,2.727,2.837,14.4,14.4,0,0,1,4.467,6.4,7.479,7.479,0,0,0,3.139.69v2.85a10.151,10.151,0,0,1-4.932-1.222,1.429,1.429,0,0,1-.718-.827c-1.315-3.948-3.32-5.241-4.965-6.722-1.919-1.727-3.526-3.616-3.68-8.651-1.531-.989-4.851-3.569-5.589-7.719a7.846,7.846,0,0,1-4.34-.768c-1.932-.87-3.856-2.347-8.685-2.347a1.428,1.428,0,0,1-1.023-.431C33.565,18.059,29.48,13.79,19.625,9.521Z" transform="translate(7.162 0.412)" fill="#bb945b" fill-rule="evenodd"/>
    <path id="path16" d="M8.177,33.91a53.524,53.524,0,0,0-4.758-5.436,1.43,1.43,0,0,1-.268-1.651L6.013,21.1a1.43,1.43,0,0,1,1.919-.64,7.455,7.455,0,0,0,1.429.574c.248.062.419.12.554.049.166-.089.242-.276.355-.465.169-.282.332-.6.519-.927a6.95,6.95,0,0,1,2.807-2.9L10.44,12.582a1.43,1.43,0,0,1,.512-2.142A46.147,46.147,0,0,1,24.235,6.018a1.43,1.43,0,0,1,.747.079c1.779.694,3.4,1.386,4.883,2.079l-1.916,2.272c-1.132-.514-2.342-1.027-3.644-1.541a41.865,41.865,0,0,0-10.527,3.357l3.244,4.324a1.431,1.431,0,0,1-.8,2.246c-2.3.575-2.823,2.072-3.4,3.078a3.61,3.61,0,0,1-2.236,1.953,4.537,4.537,0,0,1-2.621-.279s-1.8,3.6-1.8,3.6a56.647,56.647,0,0,1,3.9,4.483Z" transform="translate(0)" fill="#bb945b" fill-rule="evenodd"/>
  </g>
</svg>
